<svg width="29" height="22" viewBox="0 0 29 22" fill="none" xmlns="http://www.w3.org/2000/svg">
<path fill-rule="evenodd" clip-rule="evenodd" d="M17.3654 0.00120769C16.8275 0.0274252 16.4132 0.473749 16.4401 0.9981C16.5638 3.40975 17.9363 7.77723 22.0688 10.33H0.916588C0.410435 10.33 0.000118256 10.7299 0.000118256 11.2233C0.000118256 11.7166 0.410435 12.1165 0.916584 12.1165H21.6731C19.0757 13.6844 16.65 16.4148 15.9904 20.9148C15.9142 21.4346 16.2848 21.9161 16.818 21.9903C17.3512 22.0646 17.8452 21.7034 17.9214 21.1837C18.9286 14.3119 24.734 12.3165 27.5272 12.1735C27.6137 12.1709 27.698 12.157 27.7783 12.1332C27.9206 12.0913 28.0486 12.0187 28.1547 11.9237C28.2588 11.8307 28.3427 11.7154 28.3978 11.5841C28.4395 11.4853 28.4645 11.3784 28.4696 11.2669C28.475 11.1554 28.4602 11.0468 28.428 10.9447C28.343 10.6748 28.1367 10.4509 27.8629 10.3425C27.785 10.3116 27.7023 10.2902 27.6163 10.2799C20.5655 9.2895 18.5274 3.61713 18.3882 0.903158C18.3613 0.378807 17.9034 -0.0250098 17.3654 0.00120769Z" fill="#121212"/>
</svg>