<svg width="31" height="39" viewBox="0 0 31 39" fill="none" xmlns="http://www.w3.org/2000/svg">
<path fill-rule="evenodd" clip-rule="evenodd" d="M30.1663 23.2141C30.1073 22.4896 29.4871 21.9505 28.7811 22.0098C25.5338 22.2827 19.7036 24.326 16.4423 30.0118L15.5122 1.48297C15.49 0.800297 14.9325 0.264473 14.2671 0.286165C13.6017 0.307857 13.0804 0.878851 13.1026 1.56152L14.0153 29.5567C11.7865 26.1223 7.99717 22.9708 1.8988 22.2791C1.19447 22.1992 0.561319 22.7201 0.484625 23.4425C0.407931 24.165 0.916729 24.8154 1.62106 24.8953C10.9337 25.9516 13.8802 33.6939 14.1958 37.4549C14.2032 37.5714 14.2256 37.6845 14.2613 37.7918C14.3241 37.9818 14.4276 38.1513 14.5603 38.2902C14.6903 38.4265 14.8495 38.5346 15.0291 38.6032C15.1642 38.655 15.3094 38.6841 15.4601 38.6861C15.6106 38.6884 15.7565 38.6637 15.8928 38.6158C16.2531 38.4892 16.546 38.2012 16.6801 37.8271C16.7184 37.7207 16.7436 37.6082 16.7538 37.4918C17.7795 27.9386 25.3405 24.9403 28.9948 24.6332C29.7008 24.5738 30.2253 23.9385 30.1663 23.2141Z" fill="#ECF9FF"/>
</svg>
