<svg width="29" height="22" viewBox="0 0 29 22" fill="none" xmlns="http://www.w3.org/2000/svg">
<path d="M6.13917 9.90462L4.64117 10.83H6.40195H27.5541C27.7963 10.83 27.9706 11.0181 27.9706 11.2233C27.9706 11.4285 27.7963 11.6165 27.5541 11.6165H6.79762H5.00172L6.53924 12.5446C9.02578 14.0455 11.3504 16.6539 11.9856 20.9873C12.0198 21.2209 11.8538 21.4575 11.5838 21.4951C11.3112 21.5331 11.0787 21.3478 11.044 21.1112C9.98859 13.9102 3.89167 11.8238 0.969043 11.6742L0.969049 11.6741L0.958867 11.6738C0.915829 11.6724 0.874085 11.6656 0.83438 11.6538L0.833713 11.6536C0.763642 11.6329 0.701087 11.5974 0.649538 11.5512L0.64912 11.5508C0.598554 11.5057 0.559275 11.451 0.533869 11.3905L0.53359 11.3898C0.51435 11.3442 0.502912 11.2952 0.500559 11.244L0.500501 11.2428C0.498023 11.1915 0.504803 11.1419 0.519577 11.095C0.559037 10.9698 0.656962 10.8608 0.791767 10.8075L0.792419 10.8072C0.830711 10.792 0.87156 10.7814 0.914306 10.7762L0.914317 10.7763L0.923928 10.775C8.2912 9.74018 10.435 3.79192 10.5818 0.928773C10.594 0.691588 10.8062 0.487228 11.0809 0.500615C11.3547 0.513958 11.5434 0.736388 11.5313 0.972485C11.4135 3.26936 10.0946 7.46119 6.13917 9.90462Z" fill="#121212" stroke="#121212"/>
</svg>
