<svg width="21" height="20" viewBox="0 0 21 20" fill="none" xmlns="http://www.w3.org/2000/svg">
<path d="M17.592 0H2.93155C1.31507 0 0 1.31507 0 2.93155V12.0071C0 13.6236 1.31507 14.9387 2.93151 14.9387H5.06135V19.5991C5.06135 19.7603 5.15779 19.9056 5.30615 19.9684C5.3565 19.9897 5.40953 20 5.46212 20C5.5645 20 5.66523 19.9608 5.74155 19.8866L10.833 14.9387H17.592C19.2085 14.9387 20.5236 13.6236 20.5236 12.0071V2.93155C20.5236 1.31507 19.2085 0 17.592 0ZM19.7219 12.0071C19.7219 13.1815 18.7665 14.1369 17.592 14.1369H10.6703C10.566 14.1369 10.4657 14.1776 10.3909 14.2503L5.86309 18.6507V14.5378C5.86309 14.3164 5.68363 14.1369 5.46224 14.1369H2.93155C1.75713 14.1369 0.801703 13.1815 0.801703 12.0071V2.93155C0.801703 1.75717 1.75713 0.801743 2.93151 0.801743H17.592C18.7664 0.801743 19.7218 1.75717 19.7218 2.93155V12.0071H19.7219Z" fill="black"/>
</svg>
