<svg width="21" height="21" viewBox="0 0 21 21" fill="none" xmlns="http://www.w3.org/2000/svg">
<path fill-rule="evenodd" clip-rule="evenodd" d="M17.5388 6.53682C17.5346 5.84683 16.9711 5.29032 16.2811 5.2946C15.5911 5.29889 15.0346 5.86235 15.0389 6.55234C15.0432 7.24233 15.6066 7.79884 16.2966 7.79456C16.9866 7.79027 17.5431 7.22681 17.5388 6.53682ZM17.5078 1.53692L17.5169 3.00064C18.9763 3.50659 20.0287 4.88883 20.0388 6.5213C20.0489 8.15377 19.0138 9.54897 17.5608 10.073L17.6164 19.0366C17.6207 19.7266 17.0642 20.29 16.3742 20.2943C15.6842 20.2986 15.1208 19.7421 15.1165 19.0521L15.0608 10.0885C13.6014 9.58257 12.5491 8.20033 12.5389 6.56786C12.5288 4.93539 13.5639 3.54019 15.0169 3.01616L15.0079 1.55244C15.0036 0.862449 15.5601 0.298983 16.2501 0.2947C16.9401 0.290417 17.5035 0.846931 17.5078 1.53692ZM5.11667 19.1142C5.12096 19.8042 4.56444 20.3676 3.87446 20.3719C3.18447 20.3762 2.62101 19.8197 2.61672 19.1297L2.60764 17.666C1.14822 17.16 0.0958677 15.7778 0.0857344 14.1453C0.0756011 12.5128 1.11071 11.1176 2.56374 10.5936L2.5081 1.63003C2.50381 0.940039 3.06033 0.376574 3.75031 0.372291C4.4403 0.368008 5.00376 0.924521 5.00805 1.61451L5.06369 10.5781C6.52311 11.084 7.57546 12.4663 7.58559 14.0987C7.59572 15.7312 6.56061 17.1264 5.10759 17.6505L5.11667 19.1142ZM3.8279 12.8721C3.13792 12.8763 2.5814 13.4398 2.58569 14.1298C2.58997 14.8198 3.15343 15.3763 3.84342 15.372C4.53341 15.3677 5.08992 14.8043 5.08564 14.1143C5.08136 13.4243 4.51789 12.8678 3.8279 12.8721Z" fill="white"/>
<path fill-rule="evenodd" clip-rule="evenodd" d="M17.5388 6.53682C17.5346 5.84683 16.9711 5.29032 16.2811 5.2946C15.5911 5.29889 15.0346 5.86235 15.0389 6.55234C15.0432 7.24233 15.6066 7.79884 16.2966 7.79456C16.9866 7.79027 17.5431 7.22681 17.5388 6.53682ZM17.5078 1.53692L17.5169 3.00064C18.9763 3.50659 20.0287 4.88883 20.0388 6.5213C20.0489 8.15377 19.0138 9.54897 17.5608 10.073L17.6164 19.0366C17.6207 19.7266 17.0642 20.29 16.3742 20.2943C15.6842 20.2986 15.1208 19.7421 15.1165 19.0521L15.0608 10.0885C13.6014 9.58257 12.5491 8.20033 12.5389 6.56786C12.5288 4.93539 13.5639 3.54019 15.0169 3.01616L15.0079 1.55244C15.0036 0.862449 15.5601 0.298983 16.2501 0.2947C16.9401 0.290417 17.5035 0.846931 17.5078 1.53692ZM5.11667 19.1142C5.12096 19.8042 4.56444 20.3676 3.87446 20.3719C3.18447 20.3762 2.62101 19.8197 2.61672 19.1297L2.60764 17.666C1.14822 17.16 0.0958677 15.7778 0.0857344 14.1453C0.0756011 12.5128 1.11071 11.1176 2.56374 10.5936L2.5081 1.63003C2.50381 0.940039 3.06033 0.376574 3.75031 0.372291C4.4403 0.368008 5.00376 0.924521 5.00805 1.61451L5.06369 10.5781C6.52311 11.084 7.57546 12.4663 7.58559 14.0987C7.59572 15.7312 6.56061 17.1264 5.10759 17.6505L5.11667 19.1142ZM3.8279 12.8721C3.13792 12.8763 2.5814 13.4398 2.58569 14.1298C2.58997 14.8198 3.15343 15.3763 3.84342 15.372C4.53341 15.3677 5.08992 14.8043 5.08564 14.1143C5.08136 13.4243 4.51789 12.8678 3.8279 12.8721Z" fill="black" fill-opacity="0.2"/>
<path fill-rule="evenodd" clip-rule="evenodd" d="M17.5388 6.53682C17.5346 5.84683 16.9711 5.29032 16.2811 5.2946C15.5911 5.29889 15.0346 5.86235 15.0389 6.55234C15.0432 7.24233 15.6066 7.79884 16.2966 7.79456C16.9866 7.79027 17.5431 7.22681 17.5388 6.53682ZM17.5078 1.53692L17.5169 3.00064C18.9763 3.50659 20.0287 4.88883 20.0388 6.5213C20.0489 8.15377 19.0138 9.54897 17.5608 10.073L17.6164 19.0366C17.6207 19.7266 17.0642 20.29 16.3742 20.2943C15.6842 20.2986 15.1208 19.7421 15.1165 19.0521L15.0608 10.0885C13.6014 9.58257 12.5491 8.20033 12.5389 6.56786C12.5288 4.93539 13.5639 3.54019 15.0169 3.01616L15.0079 1.55244C15.0036 0.862449 15.5601 0.298983 16.2501 0.2947C16.9401 0.290417 17.5035 0.846931 17.5078 1.53692ZM5.11667 19.1142C5.12096 19.8042 4.56444 20.3676 3.87446 20.3719C3.18447 20.3762 2.62101 19.8197 2.61672 19.1297L2.60764 17.666C1.14822 17.16 0.0958677 15.7778 0.0857344 14.1453C0.0756011 12.5128 1.11071 11.1176 2.56374 10.5936L2.5081 1.63003C2.50381 0.940039 3.06033 0.376574 3.75031 0.372291C4.4403 0.368008 5.00376 0.924521 5.00805 1.61451L5.06369 10.5781C6.52311 11.084 7.57546 12.4663 7.58559 14.0987C7.59572 15.7312 6.56061 17.1264 5.10759 17.6505L5.11667 19.1142ZM3.8279 12.8721C3.13792 12.8763 2.5814 13.4398 2.58569 14.1298C2.58997 14.8198 3.15343 15.3763 3.84342 15.372C4.53341 15.3677 5.08992 14.8043 5.08564 14.1143C5.08136 13.4243 4.51789 12.8678 3.8279 12.8721Z" fill="black" fill-opacity="0.2"/>
</svg>
