<svg width="31" height="30" viewBox="0 0 31 30" fill="none" xmlns="http://www.w3.org/2000/svg">
<path d="M15.2507 0C6.96689 0 0.25 6.71557 0.25 15C0.25 23.2844 6.96623 30 15.2507 30C23.5357 30 30.2513 23.2844 30.2513 15C30.2513 6.71557 23.5357 0 15.2507 0ZM15.2507 4.48517C17.9917 4.48517 20.2129 6.70701 20.2129 9.44674C20.2129 12.1871 17.9917 14.4083 15.2507 14.4083C12.5109 14.4083 10.2898 12.1871 10.2898 9.44674C10.2898 6.70701 12.5109 4.48517 15.2507 4.48517ZM15.2474 26.0782C12.5136 26.0782 10.0097 25.0826 8.07846 23.4347C7.60801 23.0334 7.33654 22.445 7.33654 21.8276C7.33654 19.049 9.58538 16.8252 12.3646 16.8252H18.138C20.9179 16.8252 23.1582 19.049 23.1582 21.8276C23.1582 22.4456 22.888 23.0327 22.4169 23.434C20.4863 25.0826 17.9818 26.0782 15.2474 26.0782Z" fill="#121212"/>
</svg>
