<svg width="18" height="21" viewBox="0 0 18 21" fill="none" xmlns="http://www.w3.org/2000/svg">
<path d="M14.4297 13.9529C13.4714 13.9529 12.6081 14.3667 12.0089 15.025L6.6193 11.687C6.76319 11.3186 6.843 10.9185 6.843 10.5C6.843 10.0813 6.76319 9.68121 6.6193 9.31302L12.0089 5.97485C12.6081 6.63312 13.4714 7.04709 14.4297 7.04709C16.2348 7.04709 17.7033 5.57858 17.7033 3.77347C17.7033 1.96835 16.2348 0.5 14.4297 0.5C12.6246 0.5 11.1561 1.96851 11.1561 3.77362C11.1561 4.19217 11.236 4.59225 11.3797 4.9606L5.99034 8.29861C5.39112 7.64035 4.52778 7.22638 3.56952 7.22638C1.76441 7.22638 0.295898 8.69504 0.295898 10.5C0.295898 12.3051 1.76441 13.7736 3.56952 13.7736C4.52778 13.7736 5.39112 13.3598 5.99034 12.7014L11.3797 16.0394C11.236 16.4077 11.1561 16.8078 11.1561 17.2265C11.1561 19.0315 12.6246 20.5 14.4297 20.5C16.2348 20.5 17.7033 19.0315 17.7033 17.2265C17.7033 15.4214 16.2348 13.9529 14.4297 13.9529ZM12.3498 3.77362C12.3498 2.62677 13.2828 1.6937 14.4297 1.6937C15.5765 1.6937 16.5096 2.62677 16.5096 3.77362C16.5096 4.92047 15.5765 5.85355 14.4297 5.85355C13.2828 5.85355 12.3498 4.92047 12.3498 3.77362ZM3.56952 12.5799C2.42252 12.5799 1.48944 11.6469 1.48944 10.5C1.48944 9.35315 2.42252 8.42007 3.56952 8.42007C4.71638 8.42007 5.6493 9.35315 5.6493 10.5C5.6493 11.6469 4.71638 12.5799 3.56952 12.5799ZM12.3498 17.2264C12.3498 16.0795 13.2828 15.1465 14.4297 15.1465C15.5765 15.1465 16.5096 16.0795 16.5096 17.2264C16.5096 18.3732 15.5765 19.3063 14.4297 19.3063C13.2828 19.3063 12.3498 18.3732 12.3498 17.2264Z" fill="black"/>
</svg>
