<svg width="20" height="21" viewBox="0 0 20 21" fill="none" xmlns="http://www.w3.org/2000/svg">
<path d="M1.42857 10.5C1.42857 10.8945 1.10875 11.2143 0.714286 11.2143C0.319821 11.2143 0 10.8945 0 10.5C0 4.98589 4.48589 0.5 10 0.5C12.7484 0.5 15.2914 1.59518 17.1429 3.48089V1.21429C17.1429 0.819821 17.4627 0.5 17.8571 0.5C18.2516 0.5 18.5714 0.819821 18.5714 1.21429V5.5C18.5714 5.89446 18.2516 6.21429 17.8571 6.21429H13.5714C13.177 6.21429 12.8571 5.89446 12.8571 5.5C12.8571 5.10554 13.177 4.78571 13.5714 4.78571H16.4121C14.8095 2.98286 12.5039 1.92857 10 1.92857C5.27375 1.92857 1.42857 5.77375 1.42857 10.5ZM19.2857 9.78571C18.8913 9.78571 18.5714 10.1055 18.5714 10.5C18.5714 15.2263 14.7263 19.0714 10 19.0714C7.49607 19.0714 5.19054 18.0171 3.58786 16.2143H6.42857C6.82304 16.2143 7.14286 15.8945 7.14286 15.5C7.14286 15.1055 6.82304 14.7857 6.42857 14.7857H2.14286C1.74839 14.7857 1.42857 15.1055 1.42857 15.5V19.7857C1.42857 20.1802 1.74839 20.5 2.14286 20.5C2.53732 20.5 2.85714 20.1802 2.85714 19.7857V17.5191C4.70857 19.4048 7.25161 20.5 10 20.5C15.5141 20.5 20 16.0141 20 10.5C20 10.1055 19.6802 9.78571 19.2857 9.78571Z" fill="#121212"/>
</svg>
