<svg width="100" height="55" viewBox="0 0 100 55" fill="none" xmlns="http://www.w3.org/2000/svg">
<path fill-rule="evenodd" clip-rule="evenodd" d="M72.1092 6.92051C76.8632 7.07678 80.642 8.61892 84.4208 10.3506C96.8138 16.0371 100.959 24.8601 92.4664 33.5302C79.2608 46.9755 48.5016 55.7751 24.6501 51.714C19.3679 50.819 12.2165 50.0302 6.97486 45.6594C2.09892 41.5955 2.30208 36.7643 4.53689 32.2915C6.81233 27.7056 11.2007 23.4848 14.6951 20.7718C29.973 8.93456 60.5695 -1.82383 88.2405 3.84791C88.8093 3.95719 89.3783 3.76926 89.5408 3.42817C89.7033 3.08709 89.4187 2.72135 88.8904 2.61207C60.4068 -3.22503 28.8351 7.76439 13.1103 19.9466C8.76254 23.3296 3.07427 28.977 1.44895 34.82C0.351867 38.8136 1.12373 42.896 5.34954 46.4472C10.9162 51.103 18.5147 52.0149 24.122 52.968C48.7455 57.1625 80.5607 48.1057 94.1727 34.2194C103.315 24.9006 98.9269 15.4084 85.5993 9.29615C81.5361 7.41734 77.3914 5.79369 72.231 5.62445C71.6621 5.60602 71.1747 5.88143 71.1747 6.23912C71.1341 6.59682 71.5809 6.90208 72.1092 6.92051Z" fill="#FFE01B" stroke="#FFE01B"/>
</svg>
