<svg width="288" height="146" viewBox="0 0 288 146" fill="none" xmlns="http://www.w3.org/2000/svg">
<path fill-rule="evenodd" clip-rule="evenodd" d="M208.523 17.0316C222.397 17.4547 233.425 21.6305 244.453 26.3194C280.62 41.7175 292.716 65.6084 267.933 89.0853C229.394 125.492 139.627 149.32 70.0198 138.324C54.6042 135.9 33.7338 133.764 18.4368 121.929C4.20705 110.925 4.79996 97.8425 11.3219 85.7312C17.9625 73.3134 30.7693 61.8845 40.9673 54.538C85.5539 22.4852 174.846 -6.64638 255.6 8.71157C257.26 9.00749 258.92 8.4986 259.395 7.57501C259.869 6.65143 259.038 5.66107 257.497 5.36516C174.371 -10.4405 82.2332 19.3166 36.3422 52.3036C23.6539 61.4642 7.05347 76.7561 2.31021 92.5779C-0.891489 103.392 1.3611 114.446 13.6936 124.062C29.9392 136.669 52.1142 139.138 68.4784 141.719C140.339 153.077 233.187 128.553 272.912 90.9515C299.593 65.718 286.787 40.0151 247.892 23.4643C236.034 18.3769 223.938 13.9804 208.878 13.5221C207.218 13.4722 205.796 14.2179 205.796 15.1865C205.677 16.1551 206.981 16.9817 208.523 17.0316Z" fill="#FFE01B" stroke="#FFE01B"/>
</svg>
