<svg width="60" height="56" viewBox="0 0 60 56" fill="none" xmlns="http://www.w3.org/2000/svg">
<path d="M45 15.2133C45 6.96326 38.25 0.213257 30 0.213257C21.75 0.213257 15 6.96326 15 15.2133C15 22.7133 20.4375 28.9008 27.5625 30.0258V19.5258H23.8125V15.2133H27.5625V11.8383C27.5625 8.08826 29.8125 6.02576 33.1875 6.02576C34.875 6.02576 36.5625 6.40076 36.5625 6.40076V10.1508H34.6875C32.8125 10.1508 32.25 11.2758 32.25 12.4008V15.2133H36.375L35.625 19.5258H32.0625V30.2133C39.5625 29.0883 45 22.7133 45 15.2133Z" fill="#1877F2"/>
<path d="M1.556 52.2133V43.2733H7.076V44.1733H2.516V47.2813H6.716V48.1813H2.516V52.2133H1.556ZM9.89338 52.3573C9.48538 52.3573 9.12138 52.2813 8.80138 52.1293C8.48138 51.9693 8.22938 51.7533 8.04538 51.4813C7.86138 51.2093 7.76938 50.8973 7.76938 50.5453C7.76938 50.2093 7.84138 49.9053 7.98538 49.6333C8.12938 49.3533 8.35338 49.1173 8.65738 48.9253C8.96138 48.7333 9.34938 48.5973 9.82138 48.5173L12.3414 48.0973V48.9133L10.0374 49.2973C9.57338 49.3773 9.23738 49.5253 9.02938 49.7413C8.82938 49.9573 8.72938 50.2133 8.72938 50.5093C8.72938 50.7973 8.84138 51.0413 9.06538 51.2413C9.29738 51.4413 9.59338 51.5413 9.95338 51.5413C10.3934 51.5413 10.7774 51.4493 11.1054 51.2653C11.4334 51.0733 11.6894 50.8173 11.8734 50.4973C12.0574 50.1773 12.1494 49.8213 12.1494 49.4293V47.7973C12.1494 47.4133 12.0094 47.1013 11.7294 46.8613C11.4494 46.6213 11.0854 46.5013 10.6374 46.5013C10.2454 46.5013 9.90138 46.6013 9.60538 46.8013C9.30938 46.9933 9.08938 47.2453 8.94538 47.5573L8.12938 47.1133C8.24938 46.8413 8.43738 46.5933 8.69337 46.3693C8.95738 46.1453 9.25738 45.9693 9.59338 45.8413C9.92938 45.7053 10.2774 45.6373 10.6374 45.6373C11.1094 45.6373 11.5254 45.7293 11.8854 45.9133C12.2534 46.0973 12.5374 46.3533 12.7374 46.6813C12.9454 47.0013 13.0494 47.3733 13.0494 47.7973V52.2133H12.1494V50.9293L12.2814 51.0613C12.1694 51.3013 11.9934 51.5213 11.7534 51.7213C11.5214 51.9133 11.2454 52.0693 10.9254 52.1893C10.6134 52.3013 10.2694 52.3573 9.89338 52.3573ZM17.8406 52.3573C17.2086 52.3573 16.6526 52.2093 16.1726 51.9133C15.6926 51.6173 15.3166 51.2173 15.0446 50.7133C14.7726 50.2013 14.6366 49.6253 14.6366 48.9853C14.6366 48.3453 14.7726 47.7733 15.0446 47.2693C15.3166 46.7653 15.6926 46.3693 16.1726 46.0813C16.6526 45.7853 17.2086 45.6373 17.8406 45.6373C18.2406 45.6373 18.6166 45.7093 18.9686 45.8533C19.3206 45.9973 19.6326 46.1933 19.9046 46.4413C20.1766 46.6813 20.3806 46.9613 20.5166 47.2813L19.7006 47.7013C19.5406 47.3573 19.2966 47.0773 18.9686 46.8613C18.6406 46.6453 18.2646 46.5373 17.8406 46.5373C17.4166 46.5373 17.0326 46.6453 16.6886 46.8613C16.3526 47.0693 16.0846 47.3613 15.8846 47.7373C15.6926 48.1053 15.5966 48.5253 15.5966 48.9973C15.5966 49.4613 15.6926 49.8813 15.8846 50.2573C16.0846 50.6253 16.3526 50.9173 16.6886 51.1333C17.0326 51.3493 17.4166 51.4573 17.8406 51.4573C18.2646 51.4573 18.6366 51.3493 18.9566 51.1333C19.2846 50.9173 19.5326 50.6293 19.7006 50.2693L20.5166 50.7133C20.3806 51.0253 20.1766 51.3053 19.9046 51.5533C19.6326 51.8013 19.3206 51.9973 18.9686 52.1413C18.6166 52.2853 18.2406 52.3573 17.8406 52.3573ZM25.0239 52.3573C24.4239 52.3573 23.8799 52.2133 23.3919 51.9253C22.9119 51.6293 22.5319 51.2253 22.2519 50.7133C21.9719 50.2013 21.8319 49.6213 21.8319 48.9733C21.8319 48.3253 21.9679 47.7533 22.2399 47.2573C22.5119 46.7533 22.8799 46.3573 23.3439 46.0693C23.8159 45.7813 24.3439 45.6373 24.9279 45.6373C25.3919 45.6373 25.8039 45.7253 26.1639 45.9013C26.5319 46.0693 26.8439 46.3013 27.0999 46.5973C27.3559 46.8853 27.5519 47.2133 27.6879 47.5813C27.8239 47.9413 27.8919 48.3133 27.8919 48.6973C27.8919 48.7773 27.8879 48.8693 27.8799 48.9733C27.8719 49.0693 27.8599 49.1693 27.8439 49.2733H22.4079V48.4333H27.3279L26.8959 48.7933C26.9679 48.3533 26.9159 47.9613 26.7399 47.6173C26.5719 47.2653 26.3279 46.9893 26.0079 46.7893C25.6879 46.5813 25.3279 46.4773 24.9279 46.4773C24.5279 46.4773 24.1559 46.5813 23.8119 46.7893C23.4759 46.9973 23.2119 47.2893 23.0199 47.6653C22.8279 48.0333 22.7519 48.4733 22.7919 48.9853C22.7519 49.4973 22.8319 49.9453 23.0319 50.3293C23.2399 50.7053 23.5199 50.9973 23.8719 51.2053C24.2319 51.4133 24.6159 51.5173 25.0239 51.5173C25.4959 51.5173 25.8919 51.4053 26.2119 51.1813C26.5319 50.9573 26.7919 50.6773 26.9919 50.3413L27.7599 50.7493C27.6319 51.0373 27.4359 51.3053 27.1719 51.5533C26.9079 51.7933 26.5919 51.9893 26.2239 52.1413C25.8639 52.2853 25.4639 52.3573 25.0239 52.3573ZM32.7307 52.3573C32.1787 52.3573 31.6787 52.2333 31.2307 51.9853C30.7907 51.7293 30.4587 51.3693 30.2347 50.9053L30.3787 50.7733V52.2133H29.4787V43.1293H30.3787V47.2213L30.2347 46.9693C30.4907 46.5613 30.8307 46.2373 31.2547 45.9973C31.6867 45.7573 32.1787 45.6373 32.7307 45.6373C33.3387 45.6373 33.8787 45.7853 34.3507 46.0813C34.8307 46.3693 35.2067 46.7653 35.4787 47.2693C35.7587 47.7733 35.8987 48.3493 35.8987 48.9973C35.8987 49.6373 35.7587 50.2133 35.4787 50.7253C35.2067 51.2293 34.8307 51.6293 34.3507 51.9253C33.8787 52.2133 33.3387 52.3573 32.7307 52.3573ZM32.6827 51.4573C33.1147 51.4573 33.4987 51.3493 33.8347 51.1333C34.1787 50.9173 34.4467 50.6253 34.6387 50.2573C34.8387 49.8813 34.9387 49.4613 34.9387 48.9973C34.9387 48.5253 34.8387 48.1053 34.6387 47.7373C34.4467 47.3693 34.1787 47.0773 33.8347 46.8613C33.4987 46.6453 33.1147 46.5373 32.6827 46.5373C32.2507 46.5373 31.8587 46.6453 31.5067 46.8613C31.1627 47.0773 30.8867 47.3733 30.6787 47.7493C30.4787 48.1173 30.3787 48.5333 30.3787 48.9973C30.3787 49.4613 30.4787 49.8813 30.6787 50.2573C30.8867 50.6253 31.1627 50.9173 31.5067 51.1333C31.8587 51.3493 32.2507 51.4573 32.6827 51.4573ZM40.4946 52.3573C39.8866 52.3573 39.3346 52.2133 38.8386 51.9253C38.3426 51.6293 37.9466 51.2293 37.6506 50.7253C37.3626 50.2133 37.2186 49.6333 37.2186 48.9853C37.2186 48.3453 37.3626 47.7733 37.6506 47.2693C37.9386 46.7653 38.3266 46.3693 38.8146 46.0813C39.3106 45.7853 39.8706 45.6373 40.4946 45.6373C41.1186 45.6373 41.6746 45.7813 42.1626 46.0693C42.6586 46.3573 43.0466 46.7533 43.3266 47.2573C43.6146 47.7613 43.7586 48.3373 43.7586 48.9853C43.7586 49.6413 43.6106 50.2253 43.3146 50.7373C43.0186 51.2413 42.6226 51.6373 42.1266 51.9253C41.6386 52.2133 41.0946 52.3573 40.4946 52.3573ZM40.4946 51.4573C40.9266 51.4573 41.3146 51.3493 41.6586 51.1333C42.0106 50.9173 42.2866 50.6213 42.4866 50.2453C42.6946 49.8693 42.7986 49.4493 42.7986 48.9853C42.7986 48.5213 42.6946 48.1053 42.4866 47.7373C42.2866 47.3693 42.0106 47.0773 41.6586 46.8613C41.3146 46.6453 40.9266 46.5373 40.4946 46.5373C40.0626 46.5373 39.6706 46.6453 39.3186 46.8613C38.9746 47.0773 38.6986 47.3693 38.4906 47.7373C38.2826 48.1053 38.1786 48.5213 38.1786 48.9853C38.1786 49.4493 38.2826 49.8693 38.4906 50.2453C38.6986 50.6213 38.9746 50.9173 39.3186 51.1333C39.6706 51.3493 40.0626 51.4573 40.4946 51.4573ZM48.3579 52.3573C47.7499 52.3573 47.1979 52.2133 46.7019 51.9253C46.2059 51.6293 45.8099 51.2293 45.5139 50.7253C45.2259 50.2133 45.0819 49.6333 45.0819 48.9853C45.0819 48.3453 45.2259 47.7733 45.5139 47.2693C45.8019 46.7653 46.1899 46.3693 46.6779 46.0813C47.1739 45.7853 47.7339 45.6373 48.3579 45.6373C48.9819 45.6373 49.5379 45.7813 50.0259 46.0693C50.5219 46.3573 50.9099 46.7533 51.1899 47.2573C51.4779 47.7613 51.6219 48.3373 51.6219 48.9853C51.6219 49.6413 51.4739 50.2253 51.1779 50.7373C50.8819 51.2413 50.4859 51.6373 49.9899 51.9253C49.5019 52.2133 48.9579 52.3573 48.3579 52.3573ZM48.3579 51.4573C48.7899 51.4573 49.1779 51.3493 49.5219 51.1333C49.8739 50.9173 50.1499 50.6213 50.3499 50.2453C50.5579 49.8693 50.6619 49.4493 50.6619 48.9853C50.6619 48.5213 50.5579 48.1053 50.3499 47.7373C50.1499 47.3693 49.8739 47.0773 49.5219 46.8613C49.1779 46.6453 48.7899 46.5373 48.3579 46.5373C47.9259 46.5373 47.5339 46.6453 47.1819 46.8613C46.8379 47.0773 46.5619 47.3693 46.3539 47.7373C46.1459 48.1053 46.0419 48.5213 46.0419 48.9853C46.0419 49.4493 46.1459 49.8693 46.3539 50.2453C46.5619 50.6213 46.8379 50.9173 47.1819 51.1333C47.5339 51.3493 47.9259 51.4573 48.3579 51.4573ZM53.2092 52.2133V43.1293H54.1092V49.4893L53.7252 49.4293L57.3372 45.7813H58.5012L55.9812 48.3613L58.7292 52.2133H57.6492L55.0692 48.6493L55.6452 48.6973L53.8092 50.5933L54.1092 49.8493V52.2133H53.2092Z" fill="#858184"/>
</svg>
