<svg width="60" height="56" viewBox="0 0 60 56" fill="none" xmlns="http://www.w3.org/2000/svg">
<path fill-rule="evenodd" clip-rule="evenodd" d="M45.0008 15.5546C45.0008 14.4909 44.9034 13.4682 44.7225 12.4863H30.3066V18.2887H38.5443C38.1894 20.1638 37.111 21.7525 35.4899 22.8161V26.5799H40.4367C43.331 23.9684 45.0008 20.1229 45.0008 15.5546Z" fill="#4285F4"/>
<path fill-rule="evenodd" clip-rule="evenodd" d="M30.2995 30.2133C34.4322 30.2133 37.897 28.8701 40.4295 26.5791L35.4828 22.8154C34.1122 23.7154 32.3589 24.2472 30.2995 24.2472C26.3128 24.2472 22.9385 21.6085 21.7348 18.063H16.6211V21.9494C19.1397 26.8518 24.316 30.2133 30.2995 30.2133Z" fill="#34A853"/>
<path fill-rule="evenodd" clip-rule="evenodd" d="M21.7398 18.0635C21.4337 17.1634 21.2598 16.202 21.2598 15.2134C21.2598 14.2247 21.4337 13.2633 21.7398 12.3633V8.47687H16.6261C15.5894 10.5019 14.998 12.7929 14.998 15.2134C14.998 17.6339 15.5894 19.9249 16.6261 21.9499L21.7398 18.0635Z" fill="#FBBC05"/>
<path fill-rule="evenodd" clip-rule="evenodd" d="M30.2995 6.17931C32.5467 6.17931 34.5644 6.93614 36.1507 8.42254L40.5408 4.12017C37.8901 1.69966 34.4252 0.213257 30.2995 0.213257C24.316 0.213257 19.1397 3.5747 16.6211 8.47709L21.7348 12.3635C22.9385 8.818 26.3128 6.17931 30.2995 6.17931Z" fill="#EA4335"/>
<path d="M13.136 52.3573C12.504 52.3573 11.924 52.2453 11.396 52.0213C10.868 51.7893 10.408 51.4693 10.016 51.0613C9.632 50.6453 9.332 50.1573 9.116 49.5973C8.9 49.0373 8.792 48.4213 8.792 47.7493C8.792 47.0773 8.9 46.4613 9.116 45.9013C9.332 45.3413 9.632 44.8533 10.016 44.4373C10.408 44.0213 10.868 43.7013 11.396 43.4773C11.924 43.2453 12.504 43.1293 13.136 43.1293C13.744 43.1293 14.288 43.2373 14.768 43.4533C15.256 43.6693 15.664 43.9493 15.992 44.2933C16.328 44.6293 16.568 44.9853 16.712 45.3613L15.848 45.7813C15.624 45.2373 15.28 44.8093 14.816 44.4973C14.352 44.1853 13.792 44.0293 13.136 44.0293C12.48 44.0293 11.896 44.1853 11.384 44.4973C10.872 44.8093 10.472 45.2453 10.184 45.8053C9.896 46.3573 9.752 47.0053 9.752 47.7493C9.752 48.4853 9.896 49.1333 10.184 49.6933C10.472 50.2533 10.872 50.6893 11.384 51.0013C11.896 51.3053 12.48 51.4573 13.136 51.4573C13.72 51.4573 14.244 51.3293 14.708 51.0733C15.18 50.8173 15.552 50.4693 15.824 50.0293C16.096 49.5813 16.232 49.0693 16.232 48.4933V48.0013L16.664 48.4333H13.136V47.5933H17.192V48.3373C17.192 48.9213 17.088 49.4613 16.88 49.9573C16.672 50.4453 16.384 50.8693 16.016 51.2293C15.648 51.5893 15.216 51.8693 14.72 52.0693C14.232 52.2613 13.704 52.3573 13.136 52.3573ZM21.7915 52.3573C21.1835 52.3573 20.6315 52.2133 20.1355 51.9253C19.6395 51.6293 19.2435 51.2293 18.9475 50.7253C18.6595 50.2133 18.5155 49.6333 18.5155 48.9853C18.5155 48.3453 18.6595 47.7733 18.9475 47.2693C19.2355 46.7653 19.6235 46.3693 20.1115 46.0813C20.6075 45.7853 21.1675 45.6373 21.7915 45.6373C22.4155 45.6373 22.9715 45.7813 23.4595 46.0693C23.9555 46.3573 24.3435 46.7533 24.6235 47.2573C24.9115 47.7613 25.0555 48.3373 25.0555 48.9853C25.0555 49.6413 24.9075 50.2253 24.6115 50.7373C24.3155 51.2413 23.9195 51.6373 23.4235 51.9253C22.9355 52.2133 22.3915 52.3573 21.7915 52.3573ZM21.7915 51.4573C22.2235 51.4573 22.6115 51.3493 22.9555 51.1333C23.3075 50.9173 23.5835 50.6213 23.7835 50.2453C23.9915 49.8693 24.0955 49.4493 24.0955 48.9853C24.0955 48.5213 23.9915 48.1053 23.7835 47.7373C23.5835 47.3693 23.3075 47.0773 22.9555 46.8613C22.6115 46.6453 22.2235 46.5373 21.7915 46.5373C21.3595 46.5373 20.9675 46.6453 20.6155 46.8613C20.2715 47.0773 19.9955 47.3693 19.7875 47.7373C19.5795 48.1053 19.4755 48.5213 19.4755 48.9853C19.4755 49.4493 19.5795 49.8693 19.7875 50.2453C19.9955 50.6213 20.2715 50.9173 20.6155 51.1333C20.9675 51.3493 21.3595 51.4573 21.7915 51.4573ZM29.6548 52.3573C29.0468 52.3573 28.4948 52.2133 27.9988 51.9253C27.5028 51.6293 27.1068 51.2293 26.8108 50.7253C26.5228 50.2133 26.3788 49.6333 26.3788 48.9853C26.3788 48.3453 26.5228 47.7733 26.8108 47.2693C27.0988 46.7653 27.4868 46.3693 27.9748 46.0813C28.4708 45.7853 29.0308 45.6373 29.6548 45.6373C30.2788 45.6373 30.8348 45.7813 31.3228 46.0693C31.8188 46.3573 32.2068 46.7533 32.4868 47.2573C32.7748 47.7613 32.9188 48.3373 32.9188 48.9853C32.9188 49.6413 32.7708 50.2253 32.4748 50.7373C32.1788 51.2413 31.7828 51.6373 31.2868 51.9253C30.7988 52.2133 30.2548 52.3573 29.6548 52.3573ZM29.6548 51.4573C30.0868 51.4573 30.4748 51.3493 30.8188 51.1333C31.1708 50.9173 31.4468 50.6213 31.6468 50.2453C31.8548 49.8693 31.9588 49.4493 31.9588 48.9853C31.9588 48.5213 31.8548 48.1053 31.6468 47.7373C31.4468 47.3693 31.1708 47.0773 30.8188 46.8613C30.4748 46.6453 30.0868 46.5373 29.6548 46.5373C29.2228 46.5373 28.8308 46.6453 28.4788 46.8613C28.1348 47.0773 27.8588 47.3693 27.6508 47.7373C27.4428 48.1053 27.3388 48.5213 27.3388 48.9853C27.3388 49.4493 27.4428 49.8693 27.6508 50.2453C27.8588 50.6213 28.1348 50.9173 28.4788 51.1333C28.8308 51.3493 29.2228 51.4573 29.6548 51.4573ZM37.554 54.8533C37.114 54.8533 36.706 54.7853 36.33 54.6493C35.962 54.5133 35.642 54.3253 35.37 54.0853C35.106 53.8533 34.902 53.5813 34.758 53.2693L35.586 52.8253C35.714 53.1293 35.942 53.3933 36.27 53.6173C36.598 53.8413 37.018 53.9533 37.53 53.9533C37.922 53.9533 38.282 53.8773 38.61 53.7253C38.938 53.5733 39.202 53.3493 39.402 53.0533C39.602 52.7573 39.702 52.3933 39.702 51.9613V50.5333L39.846 50.6653C39.622 51.1293 39.29 51.4893 38.85 51.7453C38.41 51.9933 37.93 52.1173 37.41 52.1173C36.81 52.1173 36.27 51.9733 35.79 51.6853C35.31 51.3973 34.93 51.0093 34.65 50.5213C34.378 50.0253 34.242 49.4773 34.242 48.8773C34.242 48.2693 34.378 47.7213 34.65 47.2333C34.93 46.7453 35.306 46.3573 35.778 46.0693C36.258 45.7813 36.802 45.6373 37.41 45.6373C37.93 45.6373 38.402 45.7573 38.826 45.9973C39.258 46.2373 39.598 46.5613 39.846 46.9693L39.702 47.2213V45.7813H40.602V51.9613C40.602 52.5133 40.47 53.0053 40.206 53.4373C39.95 53.8773 39.59 54.2213 39.126 54.4693C38.67 54.7253 38.146 54.8533 37.554 54.8533ZM37.458 51.2173C37.874 51.2173 38.25 51.1133 38.586 50.9053C38.922 50.6893 39.19 50.4053 39.39 50.0533C39.598 49.6933 39.702 49.3013 39.702 48.8773C39.702 48.4533 39.598 48.0653 39.39 47.7133C39.19 47.3533 38.922 47.0693 38.586 46.8613C38.25 46.6453 37.874 46.5373 37.458 46.5373C37.034 46.5373 36.65 46.6453 36.306 46.8613C35.962 47.0693 35.69 47.3493 35.49 47.7013C35.298 48.0533 35.202 48.4453 35.202 48.8773C35.202 49.3013 35.298 49.6933 35.49 50.0533C35.69 50.4053 35.958 50.6893 36.294 50.9053C36.638 51.1133 37.026 51.2173 37.458 51.2173ZM42.4513 52.2133V43.1293H43.3513V52.2133H42.4513ZM48.1215 52.3573C47.5215 52.3573 46.9775 52.2133 46.4895 51.9253C46.0095 51.6293 45.6295 51.2253 45.3495 50.7133C45.0695 50.2013 44.9295 49.6213 44.9295 48.9733C44.9295 48.3253 45.0655 47.7533 45.3375 47.2573C45.6095 46.7533 45.9775 46.3573 46.4415 46.0693C46.9135 45.7813 47.4415 45.6373 48.0255 45.6373C48.4895 45.6373 48.9015 45.7253 49.2615 45.9013C49.6295 46.0693 49.9415 46.3013 50.1975 46.5973C50.4535 46.8853 50.6495 47.2133 50.7855 47.5813C50.9215 47.9413 50.9895 48.3133 50.9895 48.6973C50.9895 48.7773 50.9855 48.8693 50.9775 48.9733C50.9695 49.0693 50.9575 49.1693 50.9415 49.2733H45.5055V48.4333H50.4255L49.9935 48.7933C50.0655 48.3533 50.0135 47.9613 49.8375 47.6173C49.6695 47.2653 49.4255 46.9893 49.1055 46.7893C48.7855 46.5813 48.4255 46.4773 48.0255 46.4773C47.6255 46.4773 47.2535 46.5813 46.9095 46.7893C46.5735 46.9973 46.3095 47.2893 46.1175 47.6653C45.9255 48.0333 45.8495 48.4733 45.8895 48.9853C45.8495 49.4973 45.9295 49.9453 46.1295 50.3293C46.3375 50.7053 46.6175 50.9973 46.9695 51.2053C47.3295 51.4133 47.7135 51.5173 48.1215 51.5173C48.5935 51.5173 48.9895 51.4053 49.3095 51.1813C49.6295 50.9573 49.8895 50.6773 50.0895 50.3413L50.8575 50.7493C50.7295 51.0373 50.5335 51.3053 50.2695 51.5533C50.0055 51.7933 49.6895 51.9893 49.3215 52.1413C48.9615 52.2853 48.5615 52.3573 48.1215 52.3573Z" fill="#858184"/>
</svg>
