<svg width="632" height="508" viewBox="0 0 632 508" fill="none" xmlns="http://www.w3.org/2000/svg">
<path d="M293.921 475.832C294.72 478.062 295.345 479.691 295.89 481.347C296.715 483.86 297.71 486.342 298.14 488.948C298.268 489.721 296.887 491.352 295.953 491.575C293.113 492.259 290.164 492.596 287.237 492.798C281.903 493.167 276.548 493.232 271.217 493.638C267.852 493.89 264.52 494.607 261.157 494.919C258.551 495.163 256.108 494.945 255.483 491.521C255.391 491.017 253.491 490.218 253.111 490.496C250.551 492.353 248.069 491.445 245.45 490.844C244.632 490.655 243.062 491.124 242.766 491.736C241.824 493.723 240.417 493.658 239.053 492.77C237.368 491.671 236.504 492.09 235.761 493.74C234.762 495.958 233.372 497.397 230.571 496.672C230.026 496.531 228.721 497.471 228.534 498.129C227.928 500.268 226.669 500.57 224.877 499.894C222.506 499 220.159 498.036 217.203 496.854C217.383 498.374 217.344 499.74 217.729 500.967C218.48 503.356 217.729 504.626 215.194 504.355C212.113 504.025 209.073 503.341 205.998 502.935C205.22 502.843 204.435 503.035 203.787 503.475C201.631 505.163 199.273 505.256 196.689 504.995C195.499 504.869 193.994 505.165 193.051 505.847C191.336 507.089 189.99 507.076 188.583 505.603C187.264 504.227 186.116 504.279 184.713 505.642C183.77 506.557 182.055 507.886 181.362 507.566C180.276 507.063 179.692 505.356 179.002 504.092C178.68 503.508 178.602 502.789 178.155 501.226L173.199 507.592C172.726 507.236 172.452 507.099 172.468 507.03C173.189 503.823 171.063 502.948 168.722 501.567C162.529 497.916 156.42 494.044 150.674 489.734C147.319 487.217 144.846 483.602 145.984 478.859C147.521 472.451 145.767 466.533 143.293 460.762C142.724 459.433 141.493 458.36 140.47 457.254C137.778 454.336 137.66 453.398 139.495 449.926C139.712 449.511 139.495 448.82 139.356 448.282C139.309 448.08 138.979 447.915 138.746 447.789C131.654 444 127.237 438.028 124.657 430.556C124.495 430.089 124.054 429.444 123.663 429.379C119.515 428.699 118.251 425.146 116.844 422.121C111.748 411.155 102.054 405.101 92.4711 398.967C90.7144 397.844 88.1911 397.473 86.0348 397.512C81.2574 397.601 79.9675 393.592 80.5061 389.911C81.3443 384.163 80.4323 383.286 74.9796 385.197C72.2152 386.163 71.7961 387.499 73.5268 389.905C73.9105 390.397 74.3285 390.861 74.7776 391.295C76.2434 392.815 75.6071 393.853 73.9742 394.552C73.3066 394.801 72.5973 394.919 71.8852 394.899C63.9591 394.951 56.0331 394.98 48.107 394.986C47.3056 395.008 46.5067 394.885 45.7488 394.624C43.903 393.911 43.7553 392.537 45.3145 391.238C47.4122 389.486 47.3687 389.041 44.9605 387.764C44.7328 387.624 44.4921 387.506 44.2417 387.412C42.9844 387.028 42.1853 384.6 40.4481 386.426C38.5632 388.404 38.4329 390.915 39.9226 392.906C40.1245 393.177 40.2592 393.497 40.6544 394.209C39.5534 394.45 38.7 394.758 37.8184 394.808C30.9673 395.197 24.1031 395.401 17.265 395.942C13.1152 396.272 9.01322 397.162 4.86779 397.655C3.85586 397.774 2.41615 397.666 1.82767 397.043C1.20661 396.391 1.00683 394.895 1.25656 393.931C2.32711 389.818 3.56488 385.744 4.86779 381.694C6.0491 378.02 4.05129 374.939 3.26086 371.618C2.98942 370.485 3.04372 369.271 2.97423 368.094C2.93515 367.319 3.2196 366.407 2.90256 365.794C2.03395 364.138 1.87978 362.789 3.64088 361.649C3.8906 361.488 4.15118 360.982 4.07518 360.737C2.55512 355.808 6.53985 352.444 7.62561 348.264C8.09031 346.475 8.96326 344.789 9.41276 343C9.56694 342.383 9.12395 341.502 8.73308 340.883C6.14028 336.768 3.37811 332.755 0.915613 328.566C0.118666 327.207 -0.0289981 325.498 2.19029 324.638C2.78095 324.41 3.39116 323.005 3.23698 322.306C2.80268 320.332 1.71692 318.49 1.36948 316.512C0.952548 314.123 0.344504 311.418 1.02419 309.226C2.99376 302.881 3.6995 296.569 2.59854 290.026C2.40962 288.895 2.50517 287.711 2.52689 286.551C2.70061 277.75 2.83741 268.947 3.09148 260.148C3.25651 254.391 5.67992 252.435 11.5018 253.095C12.0338 253.156 12.5875 253.13 13.0978 253.251C21.3279 255.206 23.6384 250.113 24.5938 242.787C24.9587 239.992 24.6829 237.08 24.431 234.246C23.9967 229.271 26.7675 226.281 30.4526 223.721C31.914 222.707 33.332 221.625 34.7175 220.509C36.2592 219.265 36.7457 217.888 35.2365 216.186C33.6339 214.379 34.2897 213.1 36.4091 212.418C39.6186 211.387 42.8303 210.349 46.0745 209.439C48.524 208.755 49.5185 207.237 48.8975 204.848C48.2265 202.307 48.4436 200.199 50.537 198.305C51.0581 197.834 50.8019 196.444 50.791 195.482C50.791 195.187 50.4262 194.887 50.2091 194.614C46.6955 190.069 46.7346 186.861 50.3697 182.36C53.1601 178.903 54.576 178.896 57.1688 182.475C59.2773 181.78 59.5357 179.837 59.9331 178.106C60.3953 176.02 60.744 173.911 60.9776 171.787C61.0732 170.959 61.1036 169.767 60.6193 169.283C56.6411 165.3 56.6976 160.111 56.2937 155.116C55.792 148.932 54.0592 143.524 48.93 139.466C46.3676 137.436 44.2396 134.845 41.9986 132.428C40.3395 130.639 40.1767 128.493 41.5013 126.515C44.0658 122.682 46.4719 118.652 49.588 115.303C52.4349 112.244 52.5891 109.099 51.3448 105.749C49.6076 101.086 50.1005 96.611 51.0321 91.8966C51.8046 88.0689 52.0479 84.1533 51.7552 80.2595C51.3556 75.4539 52.3458 71.847 56.6824 69.1717C63.4141 65.0154 67.427 58.4313 71.2315 51.7452C73.0295 48.5835 74.8384 45.4262 76.5887 42.2384C78.1717 39.3524 78.6277 36.3318 78.0501 33.0203C77.5921 30.4004 77.4463 27.7354 77.6158 25.0812C77.8134 22.1018 79.7309 20.5731 82.7666 20.0672C83.4637 19.9521 84.139 19.3766 84.7036 18.8728C87.7438 16.1519 90.5211 13.0228 93.8718 10.7514C96.4776 8.98159 99.7349 7.94142 102.834 7.15099C106.336 6.26067 110 5.92189 113.6 5.5549C114.529 5.46153 115.943 5.87196 116.436 6.55382C118.056 8.797 120.182 8.76873 122.419 8.3062C126.408 7.48319 130.421 6.69931 134.31 5.52235C135.96 5.0229 137.261 3.46808 138.824 2.57776C140.616 1.55715 142.531 -0.0172296 144.381 0.000142549C147.882 0.0283723 151.413 0.849236 154.859 1.65921C159.525 2.74497 164.125 4.1347 168.757 5.42024C172.958 6.58852 176.945 8.09558 180.363 11.038C181.521 12.0347 183.692 12.6667 185.162 12.3518C191.08 11.0836 196 12.0499 200.593 16.3799C207.199 22.6057 213.27 29.0985 216.697 37.6608C217.19 38.8899 217.566 40.1797 218.135 41.3676C220.35 45.9277 222.308 46.5792 227.129 44.9593C231.42 43.513 235.798 42.3339 240.141 41.0505C240.482 40.9485 240.857 40.8095 241.19 40.8616C247.053 41.7801 250.862 37.7477 255.305 35.1418C259.27 32.8096 263.237 30.4123 267.428 28.5491C271.161 26.8901 275.246 27.5437 278.937 28.9378C284.251 30.9422 289.449 33.2809 294.613 35.6565C299.187 37.7607 303.703 39.9996 308.129 42.4099C309.894 43.3676 311.44 44.7986 312.906 46.2035C316.785 49.8843 321.282 52.0406 326.652 52.5162C335.338 53.2849 343.994 54.3837 352.686 54.9917C360.441 55.5324 367.353 52.5856 373.802 48.6204C375.311 47.691 377.003 46.0949 377.398 44.4945C378.447 40.2818 381.398 38.0408 384.823 36.308C389.635 33.8693 394.477 31.3439 399.574 29.6674C403.999 28.2147 408.763 27.5437 413.432 27.1376C423.721 26.2408 434.038 25.3744 444.352 25.2094C449.605 25.1247 454.93 26.345 460.131 27.4156C464.383 28.2842 468.526 29.7391 472.671 31.0789C478.228 32.8769 483.713 34.8987 489.279 36.6685C495.687 38.7075 501.948 41.4154 508.892 41.2287C509.865 41.197 510.828 41.4401 511.67 41.93C514.004 43.4241 515.064 42.1211 516.026 40.2492C517.526 37.3329 519.003 34.3992 520.638 31.5632C520.977 30.9769 522.143 30.3037 522.64 30.4774C524.501 31.1289 525.463 30.2364 526.468 28.9422C527.939 27.0508 529.441 25.1746 531.059 23.4113C534.121 20.0737 538.008 18.5666 542.509 18.597C544.464 18.6101 546.433 18.6383 548.396 18.6926C553.334 18.8294 554.889 17.6894 556.17 12.9555C557.932 6.45827 562.322 3.32037 569.034 3.77856C573.03 4.05 575.836 6.40617 577.962 9.44412C583.208 16.938 588.463 24.4406 593.316 32.1885C597.642 39.0961 601.466 46.3143 602.871 54.5313C603.957 60.9156 605.21 67.2738 606.3 73.6581C606.489 74.7742 606.287 75.9686 606.178 77.1173C605.874 80.3746 606.576 81.0955 609.889 80.8914C612.827 80.709 615.753 80.4571 618.701 80.3659C623.898 80.1879 627.702 82.7545 630.612 86.7892C631.144 87.5297 631.322 88.6046 631.433 89.5514C632.065 95.0062 630.823 100.153 628.816 105.186C627.986 107.242 627.278 109.345 626.697 111.484C626.004 114.072 626.48 116.281 628.747 118.161C631.722 120.619 631.741 121.911 628.727 124.304C626.239 126.28 623.414 127.85 620.671 129.492C615.351 132.68 609.961 135.755 604.647 138.956C602.652 140.156 601.075 139.872 599.331 138.395C596.32 135.846 595.699 135.824 593.427 139.101C590.144 143.842 587.147 148.784 584.105 153.687C579.842 160.556 575.718 167.509 571.404 174.345C568.159 179.483 567.1 185.016 567.764 190.972C567.878 191.856 567.919 192.748 567.888 193.639C567.66 197.81 565.636 199.771 561.456 199.878C560.57 199.899 559.677 199.739 558.787 199.725C556.181 199.689 555.185 200.774 555.608 203.382C556.325 207.775 557.213 212.14 557.916 216.535C559.167 224.34 556.613 228.537 549.293 231.56C545.767 233.017 542.37 234.817 539.035 236.683C537.148 237.734 536.125 239.288 537.858 241.49C540.166 244.426 538.596 247.486 537.834 250.437C536.859 254.211 535.604 257.909 534.642 261.685C534.367 262.866 534.394 264.096 534.718 265.264C535.713 268.832 534.801 271.064 532.019 273.481C527.537 277.377 522.084 277.535 516.701 277.939C512.197 278.276 511.913 278.562 512.419 283.008C512.54 284.082 511.915 286.08 511.233 286.265C506.31 287.689 505.613 291.937 504.669 295.833C502.993 302.723 500.486 309.384 497.203 315.669C495.9 318.188 494.69 320.772 493.633 323.406C493.262 324.334 493.097 325.658 493.477 326.52C495.112 330.212 493.22 333.018 491.142 335.55C487.954 339.432 484.424 343.033 481.049 346.763C478.369 349.73 478.847 351.975 482.489 353.558C482.814 353.701 483.238 353.699 483.49 353.912C484.654 354.885 485.77 355.912 486.906 356.919C485.82 357.973 484.908 359.308 483.648 360.025C479.74 362.246 475.592 364.092 471.731 366.402C470.617 367.069 469.462 368.843 469.509 370.064C469.677 374.526 467.203 377.833 465.186 381.334C463.816 383.723 462.146 385.942 460.517 388.159C458.667 390.663 456.185 392.068 452.989 392.011C452.633 392.011 452.274 392.011 451.918 392.042C442.871 392.71 443.015 389.99 440.689 383.138C439.923 380.871 439.603 378.452 438.885 376.17C438.667 375.475 437.838 374.843 437.147 374.454C434.709 373.104 431.984 372.168 429.764 370.528C425.842 367.614 422.183 364.34 418.49 361.13C417.263 360.066 416.598 360.157 415.867 361.603C414.941 363.425 413.884 365.184 412.826 366.932C410.507 370.756 408.316 371.886 403.923 370.993C401.568 370.509 399.298 369.673 397.191 368.513C395.928 367.814 395.237 366.146 394.117 365.097C393.509 364.529 392.332 363.834 391.763 364.064C383.528 367.401 376.816 372.303 374.391 381.488C373.941 383.188 373.316 384.962 372.31 386.363C371.528 387.449 369.83 388.919 368.888 388.702C364.903 387.79 363.442 390.359 361.854 392.995C360.523 395.201 359.249 397.444 357.863 399.614C356.182 402.239 354.106 402.543 351.566 400.652C349.457 399.075 348.139 399.477 347.164 401.976C343.994 410.098 338.126 416.122 331.746 421.737C331.395 422.008 331.002 422.221 330.582 422.367C329.208 422.936 326.952 423.157 326.608 424.089C325.644 426.712 325.123 429.633 326.75 432.36C327.342 433.355 327.792 434.445 328.461 435.381C329.911 437.409 329.086 438.818 327.184 439.648C324.591 440.777 323.644 442.814 322.993 445.381C321.879 449.763 320.376 454.043 319.18 458.41C318.2 461.982 317.579 465.658 316.52 469.204C315.582 472.34 314.552 475.515 313.045 478.396C310.813 482.648 304.033 482.926 301.289 479.15C300.889 478.603 300.337 478.042 299.732 477.793C298.175 477.167 296.568 476.716 293.921 475.832Z" fill="#121212"/>
</svg>
