<svg width="494" height="585" viewBox="0 0 494 585" fill="none" xmlns="http://www.w3.org/2000/svg">
<path d="M364.066 108.367C364.066 104.324 364.092 101.56 364.066 98.7952C364.04 96.6107 365.043 95.5488 367.245 95.3686C374.692 94.7606 382.134 94.0967 389.57 93.3772C390.452 93.2904 391.418 92.754 392.102 92.1503C398.984 86.0918 405.444 79.5556 413.34 74.6936C418.749 71.3712 424.438 72.1616 429.724 74.0877C433.568 75.4883 435.37 79.5686 436.703 83.4926C437.418 85.5924 438.458 87.5815 439.216 89.6705C440.121 92.1569 440.625 94.602 440.456 97.4119C440.076 103.709 440.395 110.048 440.425 116.369C440.425 118.048 441.211 118.886 442.925 119.24C447.457 120.176 452.021 121.06 456.431 122.421C459.356 123.325 462.149 124.836 464.768 126.452C465.815 127.103 466.87 128.769 466.84 129.946C466.635 137.872 470.952 144.167 474.042 150.905C475.636 154.38 477.083 157.952 478.991 161.25C481.523 165.619 484.203 169.956 487.258 173.96C492.281 180.52 493.842 187.843 492.945 195.825C492.826 196.885 491.903 198.049 491.03 198.785C489.684 199.918 488.112 200.828 486.533 201.63C485.723 202.042 484.613 202.335 483.771 202.131C479.283 201.038 474.823 199.839 470.39 198.533C467.925 197.803 467.389 198.051 467.296 200.657C467.113 205.732 467.098 210.822 466.659 215.873C466.531 217.349 465.556 219.477 464.377 220.02C456.994 223.416 453.726 230.305 449.32 236.409C444.067 243.69 443.689 252.196 441.815 260.354C440.729 265.103 435.331 269.722 430.499 269.655C428.808 269.631 427.051 269.737 425.437 269.333C420.719 268.15 416.853 270.389 412.625 271.787C406.793 273.717 403.905 278.454 400.823 282.877C397.049 288.306 391.724 287.248 386.602 287.209C385.733 287.209 384.745 285.702 384.072 284.714C382.769 282.805 381.705 280.736 380.448 278.794C379.362 277.122 378.02 276.299 375.959 277.472C374.507 278.299 372.8 278.684 371.349 279.515C368.982 280.873 367.347 279.848 365.677 278.245C363.94 276.582 362.118 275.005 360.261 273.468C359.768 273.062 358.9 272.651 358.418 272.827C357.936 273.003 357.675 273.9 357.51 274.532C356.709 277.591 356.116 280.714 355.165 283.724C354.472 285.921 354.255 287.804 355.905 289.695C357.367 291.37 358.476 293.357 359.979 294.985C361.716 296.875 361.701 298.772 360.657 300.877C358.437 305.337 355.964 309.691 354.064 314.281C352.409 318.288 351.258 322.533 350.22 326.742C350.003 327.586 351.069 329.306 351.975 329.764C357.639 332.621 362.568 336.747 366.376 341.821C367.199 342.906 367.792 345.019 367.291 346.107C364.843 351.419 362.22 356.68 359.202 361.686C357.247 364.943 354.492 367.714 352.092 370.702C347.274 376.71 344.264 383.297 343.122 391.129C342.425 395.907 343.374 399.863 345.36 403.611C348.548 409.62 348.474 415.989 348.362 422.356C348.294 426.145 347.395 429.926 346.798 433.697C346.692 434.364 346.388 435.163 345.899 435.578C343.391 437.706 340.87 439.839 338.168 441.706C337.549 442.14 335.821 441.899 335.269 441.328C331.554 437.485 327.517 433.806 324.562 429.417C321.304 424.59 319.1 419.061 316.46 413.828C314.696 410.332 313.126 406.727 311.185 403.333C309.511 400.406 306.136 400.992 303.461 400.625C302.51 400.497 300.827 402.31 300.223 403.587C296.514 411.45 289.867 416.834 284.154 422.996C283.576 423.62 282.417 423.865 281.487 423.967C276.879 424.477 272.258 424.855 267.648 425.35C266.825 425.437 265.457 425.724 265.36 426.151C265.179 426.933 265.564 428.023 266.057 428.757C269.138 433.281 272.777 437.291 277.37 440.351C279.513 441.78 280.73 443.432 279.359 446.138C278.523 447.788 278.152 449.684 277.244 451.285C276.79 452.088 275.674 452.668 274.736 453.004C273.565 453.455 272.319 453.677 271.064 453.656C265.968 453.411 263.123 456.108 260.708 460.322C256.993 466.8 252.639 472.917 248.724 479.278C247.892 480.628 247.551 482.396 247.386 484.014C247.06 487.204 247.058 490.424 246.828 493.625C246.741 494.504 246.494 495.361 246.1 496.153C242.672 503.373 239.408 510.684 235.664 517.74C233.299 522.2 230.138 526.23 227.451 530.528C225.577 533.527 225.957 534.15 229.245 535.038C231.903 535.754 234.487 536.747 237.123 537.559C238.839 538.091 239.241 539.164 239.39 540.942C239.944 547.535 236.822 552.423 232.413 556.692C230.309 558.731 230.344 560.623 231.855 562.822C232.007 563.04 232.09 563.32 232.272 563.507C238.161 569.496 234.142 575.571 232.335 581.563C231.842 583.196 230.559 582.548 229.265 581.997C223.252 579.391 217.124 577.055 211.119 574.436C205.819 572.125 200.824 573.945 195.728 575.113C189.152 576.619 182.565 578.067 175.967 579.456C171.263 580.451 166.523 581.278 161.817 582.26C158.801 582.887 155.826 583.706 152.814 584.349C149.956 584.959 148.855 583.915 147.983 580.605C147.018 576.944 146.326 573.063 144.552 569.802C142.271 565.613 143.129 562.28 145.42 558.675C147.52 555.372 149.179 551.774 151.429 548.586C153.62 545.481 154.161 542.232 154.174 538.543C154.2 530.428 153.044 532.69 160.629 530.132C163.904 529.027 167.187 527.948 170.466 526.856C170.636 526.799 170.857 526.769 170.951 526.638C174.188 522.387 178.625 518.914 179.42 513.095C180.084 508.246 179.363 503.855 176.618 499.649C174.29 496.085 172.738 492.016 170.41 488.454C169.483 487.036 167.511 485.929 165.802 485.464C161.177 484.209 157.092 486.203 153.105 488.287C151.45 489.156 149.848 490.22 148.076 490.732C146.193 491.28 144.05 491.803 142.195 491.44C132.291 489.486 122.825 486.151 114.076 481.097C111.008 479.325 108.691 480.998 106.259 481.912C100.2 484.194 94.2874 486.861 88.2354 489.197C87.0932 489.631 85.5948 489.486 84.3267 489.241C76.9913 487.81 69.6516 486.387 62.377 484.68C60.5768 484.246 58.9612 482.874 57.3651 481.777C50.4032 477 43.4413 472.201 36.5858 467.26C35.5221 466.416 34.8153 465.202 34.6055 463.86C33.7998 456.694 35.8779 449.921 37.9734 443.23C39.4609 438.47 39.8953 433.893 37.6412 429.3C37.3462 428.751 37.1526 428.153 37.0701 427.535C36.8963 425.474 35.6565 424.944 33.7998 424.838C29.5524 424.592 25.2961 424.343 21.0812 423.808C18.5363 423.468 16.0388 422.837 13.6373 421.928C12.6818 421.572 11.5699 420.282 11.4375 419.296C10.8316 414.825 10.089 410.38 12.4603 405.978C13.798 403.494 13.8154 400.716 11.8501 397.943C9.7633 395.001 8.3062 391.587 6.78396 388.282C6.25194 387.127 6.18896 385.677 6.1781 384.374C6.12598 378.133 6.17808 371.887 6.15636 365.647C6.18579 364.759 6.08554 363.873 5.85884 363.015C4.55593 358.793 3.8263 354.229 1.67432 350.485C-0.931499 345.964 0.371462 341.428 0.0435628 336.906C-0.0367833 335.821 0.792758 334.607 1.36821 333.541C2.38231 331.662 3.43767 329.797 4.62549 328.029C5.90451 326.134 7.16392 324.16 8.78604 322.585C10.5841 320.848 11.7654 319.059 11.3441 316.505C10.6753 312.457 11.9565 309.339 15.2529 306.766C22.1409 301.409 24.0301 293.446 25.7825 285.507C27.105 279.522 28.2711 273.505 29.4415 267.483C30.6793 261.127 32.3145 254.847 31.9388 248.246C31.6652 243.444 32.0799 238.606 31.8346 233.803C31.5436 228.129 30.8878 222.474 30.3427 216.815C30.2667 216.033 30.1148 215.11 29.6479 214.539C27.029 211.33 26.5795 207.321 26.8357 203.664C27.1115 199.736 28.0974 195.365 30.245 192.181C33.2287 187.76 37.6868 184.364 41.3198 180.336C43.4327 177.997 45.2806 175.389 47.0134 172.746C48.071 171.133 48.8267 169.272 49.4673 167.441C50.4032 164.755 51.7278 162.277 50.2707 159.059C49.1415 156.564 49.0895 153.413 51.7062 151.198C55.9775 147.572 56.3489 142.621 56.2946 137.559C56.2403 132.497 56.3923 127.368 55.8603 122.334C55.515 119.027 53.9341 115.87 53.2675 112.574C52.818 110.448 52.762 108.257 53.1024 106.111C53.8081 102.102 55.0438 98.2675 57.6322 94.9016C60.5029 91.1666 62.7831 86.9669 65.7494 83.3188C67.5561 81.093 70.0924 79.41 72.4441 77.6924C74.911 75.8965 76.3789 73.9291 76.0923 70.5937C75.9381 68.8 76.9609 66.9021 77.5146 65.0607C77.6645 64.5721 78.1943 64.2052 78.3724 63.7187C80.583 57.6732 85.0367 55.684 91.2234 55.9946C95.1039 56.1878 98.4459 58.2421 99.5251 62.0205C99.9594 63.5515 100.366 65.2235 101.299 66.4352C101.979 67.3147 103.458 67.8099 104.661 68.0205C110.652 69.0759 115.853 66.6633 120.826 63.823C123.437 62.3525 125.861 60.5728 128.046 58.5223C133.342 53.48 138.441 48.2314 143.563 43.0111C145.952 40.5768 148.614 39.0328 152.134 38.605C155.459 38.199 158.747 37.2132 161.941 36.1556C163.007 35.8038 164.093 34.5943 164.56 33.515C166.864 28.1818 166.794 22.6031 165.711 17.0115C165.276 14.7748 165.646 13.4263 168.132 12.586C171.739 11.3677 175.181 9.65006 178.66 8.07137C179.528 7.67181 180.273 6.98566 181.089 6.43626C182.529 5.48731 184.08 3.6393 185.406 3.78262C189.721 4.25384 194.351 3.32445 198.195 6.56869C204.446 11.8455 204.47 11.5631 212.055 8.91824C215.154 7.83248 216.789 5.62622 218.513 3.27229C221.076 -0.228194 221.108 -0.330195 224.948 1.59594C233.833 6.04755 242.682 10.5795 251.523 15.1201C253.731 16.2536 253.84 17.4567 252.726 19.6803C250.895 23.3241 249.234 27.0635 247.662 30.8202C247.275 31.7431 247.319 32.9548 247.49 33.9776C247.966 36.8223 255.019 42.8482 257.935 43.0067C260.519 43.1457 263.103 43.2347 265.688 43.3585C267.831 43.4628 269.088 44.4443 269.525 46.6831C269.928 48.7678 270.747 50.7721 271.331 52.8241C271.868 54.7134 273.216 54.5506 274.738 54.4094C281.705 53.758 287.75 51.176 292.979 46.4703C295.544 44.1642 296.551 44.529 299.298 46.4508C302.99 49.0393 306.883 51.3497 310.675 53.8035C314.038 55.9751 317.55 55.569 321.139 54.5288C323.528 53.8339 325.934 53.1043 328.384 52.6852C329.052 52.5701 330.527 53.4605 330.577 53.9881C331.074 59.2866 332.981 64.7241 329.287 69.7186C328.399 70.9195 327.817 72.3656 327.204 73.7467C326.184 76.0442 324.733 77.8488 322.238 78.6392C320.618 79.1539 320.067 80.296 320.284 81.9573C320.848 86.3741 321.604 90.7867 321.78 95.2209C321.862 97.3273 320.946 99.5292 320.214 101.592C319.083 104.773 317.192 107.774 316.61 111.03C316.047 114.174 316.662 117.544 316.901 120.812C317.042 122.751 317.511 124.667 317.734 126.604C317.939 128.341 318.534 130.02 320.408 130.117C328.327 130.528 334.637 134.769 341.109 138.599C342.685 139.533 343.819 139.27 345.274 138.504C351.836 135.042 356.392 129.885 360.287 123.52C363.54 118.209 364.709 113.006 364.066 108.367Z" fill="#121212"/>
</svg>
