<svg width="797" height="944" viewBox="0 0 797 944" fill="none" xmlns="http://www.w3.org/2000/svg">
<path d="M588.277 174.837C588.277 168.306 588.319 163.84 588.277 159.375C588.235 155.846 589.855 154.13 593.412 153.839C605.442 152.857 617.463 151.785 629.477 150.622C630.901 150.482 632.462 149.616 633.567 148.64C644.683 138.854 655.119 128.295 667.873 120.441C676.611 115.074 685.802 116.351 694.34 119.462C700.549 121.725 703.461 128.316 705.614 134.655C706.768 138.047 708.449 141.26 709.673 144.635C711.136 148.651 711.95 152.601 711.676 157.14C711.062 167.313 711.578 177.552 711.627 187.764C711.627 190.475 712.897 191.829 715.664 192.401C722.985 193.913 730.359 195.34 737.483 197.54C742.208 198.999 746.719 201.441 750.95 204.05C752.641 205.103 754.345 207.793 754.296 209.695C753.967 222.498 760.94 232.668 765.932 243.552C768.507 249.165 770.843 254.935 773.926 260.264C778.016 267.322 782.345 274.327 787.281 280.795C795.394 291.393 797.916 303.221 796.468 316.116C796.275 317.828 794.784 319.708 793.374 320.897C791.199 322.728 788.659 324.198 786.109 325.492C784.801 326.159 783.008 326.632 781.647 326.303C774.397 324.537 767.192 322.599 760.032 320.49C756.05 319.311 755.184 319.711 755.033 323.921C754.738 332.119 754.714 340.341 754.005 348.5C753.798 350.886 752.223 354.323 750.318 355.2C738.392 360.687 733.112 371.814 725.995 381.674C717.51 393.436 716.899 407.176 713.872 420.355C712.118 428.027 703.397 435.488 695.592 435.379C692.86 435.341 690.022 435.512 687.416 434.86C679.793 432.948 673.549 436.565 666.719 438.824C657.297 441.942 652.632 449.593 647.654 456.738C641.557 465.508 632.956 463.8 624.681 463.737C623.278 463.737 621.682 461.302 620.595 459.706C618.49 456.623 616.771 453.28 614.74 450.144C612.986 447.443 610.818 446.113 607.489 448.007C605.143 449.344 602.385 449.965 600.042 451.308C596.219 453.501 593.577 451.845 590.88 449.256C588.073 446.569 585.13 444.022 582.131 441.539C581.335 440.883 579.932 440.22 579.153 440.504C578.374 440.788 577.953 442.237 577.687 443.258C576.392 448.2 575.435 453.245 573.898 458.107C572.779 461.656 572.428 464.698 575.094 467.753C577.455 470.458 579.248 473.667 581.675 476.298C584.481 479.35 584.457 482.416 582.769 485.815C579.184 493.02 575.189 500.053 572.12 507.469C569.447 513.941 567.587 520.799 565.911 527.597C565.56 528.962 567.282 531.74 568.745 532.48C577.895 537.095 585.857 543.76 592.009 551.956C593.339 553.709 594.296 557.123 593.486 558.88C589.533 567.46 585.295 575.96 580.419 584.045C577.262 589.307 572.811 593.783 568.935 598.61C561.151 608.316 556.289 618.956 554.444 631.608C553.318 639.326 554.851 645.717 558.06 651.772C563.21 661.478 563.09 671.766 562.908 682.051C562.799 688.172 561.347 694.28 560.382 700.373C560.211 701.45 559.719 702.741 558.93 703.411C554.879 706.848 550.806 710.293 546.442 713.31C545.442 714.011 542.65 713.622 541.759 712.699C535.757 706.49 529.236 700.548 524.462 693.459C519.2 685.661 515.64 676.73 511.374 668.276C508.526 662.628 505.99 656.805 502.854 651.322C500.149 646.594 494.698 647.541 490.376 646.948C488.84 646.741 486.121 649.67 485.146 651.733C479.155 664.435 468.417 673.131 459.188 683.086C458.255 684.093 456.382 684.489 454.88 684.654C447.437 685.478 439.972 686.089 432.525 686.889C431.195 687.029 428.985 687.492 428.827 688.183C428.536 689.446 429.157 691.207 429.953 692.392C434.931 699.699 440.81 706.178 448.229 711.121C451.692 713.429 453.656 716.098 451.443 720.469C450.092 723.135 449.492 726.198 448.026 728.783C447.293 730.081 445.49 731.017 443.974 731.561C442.083 732.289 440.069 732.647 438.043 732.613C429.81 732.217 425.214 736.574 421.314 743.382C415.312 753.846 408.278 763.728 401.954 774.003C400.61 776.185 400.06 779.04 399.793 781.653C399.267 786.806 399.263 792.008 398.891 797.179C398.75 798.6 398.352 799.984 397.716 801.262C392.177 812.926 386.905 824.737 380.858 836.134C377.038 843.339 371.93 849.849 367.591 856.791C364.564 861.636 365.178 862.642 370.488 864.077C374.782 865.235 378.956 866.838 383.215 868.15C385.986 869.009 386.635 870.742 386.877 873.615C387.772 884.265 382.727 892.161 375.606 899.057C372.207 902.351 372.263 905.406 374.705 908.96C374.95 909.311 375.084 909.763 375.378 910.065C384.892 919.74 378.399 929.555 375.48 939.233C374.684 941.871 372.611 940.825 370.52 939.934C360.807 935.725 350.908 931.951 341.208 927.72C332.646 923.988 324.578 926.927 316.345 928.815C305.723 931.247 295.082 933.585 284.423 935.83C276.825 937.437 269.168 938.773 261.566 940.359C256.694 941.372 251.888 942.695 247.023 943.733C242.406 944.719 240.628 943.032 239.218 937.686C237.66 931.772 236.541 925.503 233.675 920.234C229.992 913.468 231.378 908.083 235.078 902.26C238.47 896.925 241.15 891.112 244.785 885.963C248.324 880.946 249.197 875.699 249.219 869.739C249.261 856.63 247.394 860.285 259.647 856.153C264.937 854.367 270.241 852.624 275.538 850.859C275.812 850.768 276.169 850.719 276.32 850.509C281.55 843.64 288.717 838.031 290.001 828.63C291.074 820.797 289.91 813.704 285.476 806.91C281.715 801.153 279.207 794.58 275.447 788.827C273.949 786.536 270.764 784.747 268.003 783.996C260.531 781.969 253.933 785.189 247.493 788.556C244.82 789.96 242.231 791.679 239.368 792.507C236.327 793.391 232.865 794.236 229.869 793.65C213.87 790.493 198.579 785.105 184.446 776.942C179.489 774.08 175.747 776.781 171.818 778.258C162.031 781.944 152.479 786.252 142.703 790.026C140.857 790.728 138.437 790.493 136.388 790.097C124.539 787.785 112.682 785.487 100.931 782.73C98.0232 782.029 95.4133 779.812 92.8351 778.04C81.5889 770.323 70.3427 762.57 59.2684 754.59C57.5501 753.225 56.4082 751.265 56.0693 749.097C54.7679 737.521 58.1249 726.58 61.5099 715.772C63.9128 708.083 64.6145 700.688 60.9733 693.269C60.4966 692.382 60.1839 691.416 60.0506 690.417C59.77 687.089 57.7671 686.233 54.7679 686.061C47.9066 685.664 41.0311 685.261 34.2224 684.398C30.1113 683.847 26.0768 682.828 22.1975 681.36C20.6541 680.785 18.8579 678.701 18.6439 677.109C17.6652 669.886 16.4657 662.705 20.2963 655.595C22.4571 651.582 22.4852 647.096 19.3106 642.616C15.9395 637.863 13.5857 632.348 11.1267 627.009C10.2673 625.143 10.1656 622.8 10.148 620.695C10.0638 610.614 10.148 600.525 10.1129 590.444C10.1604 589.011 9.9985 587.578 9.63229 586.192C7.52758 579.373 6.34893 571.999 2.87265 565.952C-1.33677 558.648 0.768025 551.321 0.23834 544.017C0.108549 542.263 1.44858 540.302 2.37816 538.58C4.01633 535.546 5.72114 532.533 7.63994 529.677C9.70606 526.615 11.7405 523.426 14.3609 520.883C17.2654 518.077 19.1737 515.186 18.4932 511.061C17.4128 504.522 19.4824 499.485 24.8073 495.328C35.9342 486.675 38.986 473.811 41.8168 460.986C43.9531 451.319 45.8368 441.599 47.7276 431.871C49.727 421.604 52.3685 411.459 51.7616 400.795C51.3196 393.039 51.9896 385.224 51.5932 377.465C51.1232 368.299 50.0638 359.164 49.1833 350.023C49.0605 348.76 48.8151 347.269 48.0609 346.347C43.8304 341.162 43.1042 334.686 43.5182 328.779C43.9636 322.434 45.5563 315.372 49.0255 310.23C53.8453 303.088 61.0469 297.601 66.9156 291.094C70.3287 287.316 73.3138 283.103 76.1131 278.834C77.8214 276.228 79.0422 273.222 80.077 270.265C81.5889 265.926 83.7286 261.923 81.3748 256.724C79.5508 252.694 79.4667 247.604 83.6937 244.026C90.5936 238.168 91.1934 230.17 91.1057 221.993C91.018 213.816 91.2636 205.531 90.4041 197.4C89.8464 192.057 87.2927 186.957 86.2158 181.632C85.4897 178.198 85.3992 174.659 85.9491 171.192C87.0891 164.717 89.0852 158.522 93.2665 153.085C97.9039 147.051 101.587 140.267 106.379 134.374C109.297 130.779 113.395 128.06 117.194 125.285C121.178 122.384 123.55 119.206 123.087 113.818C122.838 110.921 124.49 107.855 125.384 104.88C125.626 104.091 126.482 103.498 126.77 102.712C130.341 92.9464 137.536 89.7331 147.529 90.2347C153.798 90.547 159.197 93.8654 160.94 99.969C161.641 102.442 162.298 105.143 163.806 107.101C164.904 108.521 167.293 109.321 169.236 109.661C178.914 111.366 187.315 107.469 195.348 102.881C199.566 100.505 203.482 97.6304 207.012 94.3179C215.568 86.1727 223.804 77.6942 232.079 69.2613C235.938 65.329 240.238 62.8349 245.925 62.1439C251.295 61.4879 256.606 59.8954 261.766 58.1871C263.488 57.6188 265.242 55.6649 265.997 53.9215C269.718 45.3062 269.606 36.2945 267.856 27.2618C267.154 23.6487 267.751 21.4704 271.767 20.1129C277.594 18.145 283.154 15.3702 288.773 12.82C290.176 12.1746 291.379 11.0662 292.698 10.1787C295.024 8.64576 297.529 5.66051 299.672 5.89202C306.642 6.65323 314.121 5.15189 320.33 10.3926C330.429 18.9167 330.467 18.4606 342.72 14.1881C347.726 12.4341 350.367 8.87015 353.153 5.06764C357.292 -0.58701 357.344 -0.751783 363.546 2.35968C377.9 9.55077 392.195 16.8716 406.475 24.2065C410.043 26.0376 410.218 27.9809 408.419 31.573C405.462 37.4592 402.778 43.4998 400.238 49.5684C399.614 51.0592 399.684 53.0166 399.961 54.6688C400.73 59.2641 412.123 68.9982 416.834 69.2543C421.008 69.4788 425.183 69.6226 429.357 69.8226C432.819 69.991 434.85 71.5765 435.556 75.1931C436.208 78.5607 437.53 81.7983 438.474 85.1133C439.34 88.1651 441.519 87.9021 443.978 87.6741C455.231 86.6217 464.997 82.4509 473.444 74.8494C477.587 71.124 479.214 71.7134 483.652 74.8179C489.615 78.9992 495.905 82.7315 502.029 86.6954C507.463 90.2032 513.135 89.5472 518.934 87.867C522.792 86.7444 526.679 85.5659 530.636 84.8889C531.716 84.703 534.098 86.1412 534.179 86.9936C534.982 95.5527 538.062 104.336 532.095 112.404C530.66 114.344 529.72 116.68 528.731 118.911C527.082 122.623 524.739 125.538 520.709 126.815C518.092 127.646 517.201 129.491 517.552 132.175C518.464 139.31 519.684 146.438 519.968 153.601C520.102 157.003 518.621 160.56 517.439 163.893C515.612 169.032 512.556 173.879 511.616 179.138C510.708 184.217 511.7 189.661 512.086 194.941C512.314 198.073 513.072 201.167 513.433 204.296C513.763 207.102 514.724 209.814 517.751 209.972C530.545 210.635 540.738 217.486 551.192 223.673C553.738 225.182 555.57 224.757 557.92 223.519C568.521 217.928 575.88 209.596 582.173 199.315C587.428 190.735 589.315 182.33 588.277 174.837Z" fill="#121212"/>
<path d="M433.906 403.74C433.282 404.37 432.6 404.941 431.87 405.445C417.207 413.068 416.686 413.336 422.763 428.694C425.746 436.301 423.315 438.432 416.449 439.742C410.821 441.025 405.276 442.648 399.845 444.603C388.919 448.481 377.103 449.101 365.832 446.387C350.048 442.599 333.428 442.394 319.144 433.208C317.36 432.055 313.998 432.592 311.631 433.208C297.962 437.154 290.275 432.861 284.041 420.297C278.646 409.824 272.306 399.865 265.101 390.545C237.495 353.769 209.4 317.341 181.653 280.66C176.48 273.695 171.681 266.461 167.274 258.989C164.212 253.922 160.393 251.491 154.395 252.028C143.709 252.975 133.261 251.934 124.406 245.289C122.102 243.568 119.466 239.969 119.75 237.555C120.839 228.305 121.58 218.615 125.211 210.17C131.208 196.297 132.029 182.107 131.004 167.712C130.641 162.662 126.142 158.021 124.39 152.907C122.624 148.164 121.648 143.162 121.502 138.102C121.502 129.99 123.506 121.877 123.333 113.812C123.159 106.441 124.753 99.7483 129.899 95.1553C133.772 91.9906 138.629 90.2768 143.63 90.3096C146.787 90.3885 150.323 94.4292 152.738 97.4596C155.531 100.995 156.715 108.24 159.587 108.792C166.769 110.154 174.169 109.813 181.195 107.798C193.665 104.18 204.715 96.8057 212.841 86.6797C214.798 84.2332 217.576 82.4181 219.455 79.9243C229.714 66.4609 243.461 59.5475 259.987 56.8801C261.73 56.3502 263.323 55.4144 264.634 54.1496C265.946 52.8847 266.939 51.3267 267.531 49.6037C269.187 41.6912 270.049 33.6334 270.104 25.5497C270.199 20.7042 271.367 18.0368 276.023 16.0796C282.715 13.1912 288.65 7.73014 295.484 6.26227C301.798 4.92066 310.147 5.34677 315.403 8.58241C330.886 18.0525 342.235 17.5317 353.836 3.61054C356.74 0.106588 359.124 -0.587789 363.133 1.54299C374.497 7.55127 385.961 13.3912 397.525 19.0627C402.449 21.4934 403.081 24.6501 400.555 29.1484C399.403 31.2003 398.551 33.4257 397.588 35.5723C390.406 51.5137 399.167 67.3288 416.765 67.9128C426.882 68.2443 432.406 71.4482 433.78 81.6128C434.474 86.7741 437.647 88.1 442.918 87.2635C454.188 85.4957 465.236 83.6018 473.807 75.1102C477.074 71.9535 480.12 72.5215 483.514 75.2836C487.089 78.3798 490.971 81.1036 495.099 83.4124C502.817 87.453 510.693 90.8778 519.911 87.5159C523.067 86.3637 529.491 85.9375 529.949 87.0897C531.527 90.9567 532.727 96.2916 531.196 99.8429C527.44 108.555 523.588 117.315 512.903 121.103C505.737 123.629 499.266 128.759 493.158 133.573C483.893 140.865 479.599 151.045 477.263 162.567C474.927 174.089 470.95 184.806 468.377 196.06C466.483 204.204 460.091 207.708 454.267 212.096C436.021 225.812 437.315 219.988 446.675 240.901C449.358 246.899 451.599 253.164 454.961 258.752C460.486 267.938 459.365 276.272 455.956 286.168C450.415 302.157 439.557 314.01 429.676 326.906C426.986 330.857 425.621 335.56 425.778 340.337C426.014 348.971 427.766 357.557 428.808 366.159C429.029 367.974 429.518 370.152 428.808 371.604C423.457 382.022 425.841 391.255 432.517 400.015C433.161 401.181 433.629 402.437 433.906 403.74ZM322.758 247.719L322.616 246.473C323.563 246.157 324.526 245.904 325.457 245.541C330.066 243.71 338.51 230.294 336.064 228.763C332.102 226.301 326.594 226.332 321.653 225.606C321.009 225.477 320.346 225.484 319.704 225.625C319.063 225.767 318.458 226.04 317.928 226.427C315.592 229.237 312.404 232.125 311.757 235.424C310.338 242.7 309.734 250.111 309.957 257.521C309.957 260.062 312.972 263.645 315.498 264.734C318.654 266.06 322.648 265.618 326.246 265.35C332.023 264.908 336.679 262.43 336.474 255.88C336.269 249.329 331.123 248.335 325.836 248.114C324.81 248.003 323.784 247.877 322.758 247.782V247.719ZM217.718 235.092C217.718 239.291 217.86 243.489 217.718 247.719C217.513 252.691 219.66 255.027 224.679 254.853C228.861 254.711 233.107 255.09 237.306 254.585C238.789 254.396 240.036 252.297 241.41 251.081C240.068 250.134 238.853 248.682 237.369 248.367C235.112 247.861 232.508 248.651 230.393 247.94C228.814 247.419 226.889 245.257 226.968 243.931C227.121 242.908 227.48 241.926 228.022 241.044C228.565 240.163 229.28 239.4 230.124 238.802C231.419 237.918 233.77 238.801 235.475 238.281C236.722 237.918 237.685 236.576 238.774 235.676C237.701 234.461 236.848 232.52 235.538 232.173C232.129 231.131 226.526 233.309 226.873 227.059C227.22 220.808 232.87 224.06 236.153 223.081C236.643 222.939 237.369 223.16 237.732 222.876C238.963 221.787 240.084 220.571 241.236 219.403C239.957 218.393 238.805 216.752 237.385 216.468C221.128 213.217 217.845 215.884 217.829 231.999L217.718 235.092ZM247.786 240.522C247.786 243.411 247.281 246.409 247.944 249.14C248.465 251.223 250.438 252.943 251.764 254.822C253.342 252.88 255.773 251.144 256.404 248.903C257.225 245.983 256.088 242.59 256.878 239.575C257.509 237.271 259.782 235.408 261.329 233.356C262.623 235.329 264.627 237.144 265.069 239.291C265.732 242.558 264.817 246.188 265.574 249.424C266.048 251.444 268.368 253.022 269.852 254.79C271.004 253.054 272.866 251.444 273.182 249.566C273.524 246.178 273.582 242.768 273.355 239.37C273.355 226.743 270.467 224.423 257.714 226.743C256.731 227.045 255.686 227.083 254.683 226.853C248.749 224.565 247.802 228.053 247.77 232.662C247.755 235.392 247.77 238.012 247.786 240.632V240.522ZM367.22 241.09C367.22 237.933 367.726 234.682 367.047 231.62C366.573 229.568 364.474 227.879 363.101 226.033C361.665 227.8 359.392 229.395 359.013 231.352C358.303 234.903 359.281 238.786 358.492 242.29C358.034 244.357 355.556 245.983 353.994 247.798C352.51 246.015 350.142 244.421 349.732 242.432C348.99 238.896 349.906 235.029 349.227 231.494C348.833 229.474 346.639 227.801 345.25 225.97C343.75 227.706 341.399 229.252 340.941 231.225C340.215 234.477 340.688 238.012 340.735 241.422C340.925 253.464 344.855 256.574 356.772 254.191C357.752 253.859 358.799 253.778 359.818 253.954C366.605 256.464 367.583 252.723 367.268 247.325C367.126 245.399 367.284 243.3 367.284 241.169L367.22 241.09ZM305.049 240.585C305.049 237.712 305.538 234.714 304.891 231.983C304.402 229.868 302.508 228.069 301.229 226.143C299.809 227.99 297.599 229.663 297.126 231.731C296.4 234.982 297.441 238.659 296.573 241.848C295.942 244.136 293.417 245.904 291.712 247.893C290.449 245.936 288.555 244.136 288.05 241.99C287.387 239.259 288.334 236.118 287.608 233.42C286.882 230.721 284.972 228.526 283.567 226.08C282.131 228.384 280.079 230.531 279.401 233.041C278.722 235.55 279.195 238.77 279.243 241.643C279.401 254.159 282.541 256.637 295.026 254.175C295.994 253.816 297.039 253.718 298.057 253.891C304.844 256.716 304.986 252.312 305.033 247.672C305.065 245.415 305.049 243.063 305.049 240.696V240.585Z" fill="#121212"/>
<path d="M300.993 462.502C303.977 455.305 306.534 449.339 308.885 443.309C310.779 438.574 314.504 437.485 318.355 439.726C335.512 449.765 355.226 449.449 373.74 453.932C386.651 457.088 397.873 450.522 409.758 447.902C417.413 446.229 421.012 448.439 421.833 456.315C422.953 467.048 437.064 483.036 447.339 485.151C448.361 485.504 449.473 485.504 450.495 485.151C458.766 480.29 463.99 484.788 467.857 491.275C472.229 498.567 479.269 499.83 486.561 501.045C498.998 503.129 511.404 505.386 523.873 507.217C529.129 508.006 532.807 509.932 533.643 515.566C533.835 516.33 534.093 517.074 534.417 517.792C540.288 535.154 540.32 534.617 558.455 535.722C572.361 536.574 581.657 545.729 589.422 556.241C590.354 557.503 589.423 560.976 588.365 562.743C582.052 573.303 576.133 584.083 568.967 594.011C560.76 605.391 552.884 616.423 551.353 631.118C550.5 639.199 550.169 646.696 553.862 654.067C561.059 668.462 560.586 683.74 557.461 698.766C556.561 703.138 551.416 706.816 547.722 710.257C547.012 710.919 543.129 709.578 542.04 708.158C535.148 699.665 528.725 690.803 522.8 681.61C517.495 672.533 512.751 663.14 508.595 653.483C504.744 645.007 496.978 644.471 489.954 644.944C486.545 645.181 483.136 650.09 480.295 653.388C472.403 662.464 465.616 672.629 456.825 680.678C453.1 684.103 445.555 683.535 439.684 684.387C433.071 685.35 426.41 685.855 418.044 686.755C425.226 698.766 431.666 708.473 441.436 715.402C446.171 718.701 447.986 722.647 444.592 727.224C443.59 728.45 442.342 729.451 440.928 730.164C439.514 730.876 437.966 731.284 436.385 731.359C427.609 730.996 422.369 734.8 418.187 742.282C412.638 752.123 406.524 761.635 399.877 770.771C394.921 777.621 394.022 784.976 393.343 793.01C393.068 798.975 391.648 804.832 389.161 810.261C380.085 827.702 370.22 844.796 360.545 861.858C356.157 869.545 356.299 870.539 364.727 873.317C366.969 874.074 369.257 874.674 371.53 875.353C381.363 878.289 384.804 886.007 377.528 893.125C366.148 904.284 364.901 914.386 374.371 927.092C375.95 929.285 373.424 935.283 371.641 938.992C371.215 939.876 366.069 939.134 363.418 938.203C358.493 936.451 353.947 933.721 348.975 931.89C337.679 927.64 325.331 927.055 313.684 930.217C291.871 935.93 269.49 939.781 247.393 943.964C245.467 944.327 241.852 941.865 240.858 939.813C238.169 934.134 236.019 928.215 234.434 922.135C233.702 919.193 233.917 916.094 235.05 913.281C237.464 908.026 240.299 902.975 243.526 898.176C248.261 890.773 252.349 883.276 251.054 873.98C250.455 869.639 252.522 867.098 256.926 866.214C259.735 865.662 262.387 864.273 265.181 863.689C284.231 859.79 295.359 839.256 292.328 821.641C290.845 812.992 284.989 804.942 280.412 797.019C276.734 790.626 276.576 786.996 282.479 780.62C291.523 770.85 301.246 760.101 302.824 745.896C303.424 738.701 302.669 731.457 300.599 724.541C298.152 715.86 301.199 708.442 303.992 700.944C304.734 698.94 308.38 697.535 310.953 696.793C319.539 694.315 328.189 692.058 336.885 690.117C342.236 688.886 344.382 686.329 343.199 680.647C341.889 674.743 341.133 668.73 340.942 662.685C340.831 657.082 340.5 650.721 342.836 645.954C349.875 631.576 350.349 616.486 349.07 601.287C348.691 596.552 344.84 591.974 341.826 587.887C338.511 583.372 337.564 579.695 340.689 574.392C350.484 557.854 357.085 539.624 360.15 520.649C361.16 514.54 359.945 510.042 354.989 506.143C338.716 493.295 322.601 480.243 306.439 467.253C304.403 465.674 302.572 463.859 300.993 462.502ZM414.067 591.201C413.999 589.473 413.713 587.76 413.215 586.103C412.063 583.609 410.468 581.368 409.064 578.922C407.485 581.415 404.833 583.799 404.581 586.403C404.144 593.234 404.081 600.084 404.392 606.922C404.486 613.709 401.74 622.847 414.525 619.785C415.361 619.596 416.419 620.638 417.429 620.874C423.442 622.232 427.783 619.769 430.324 614.482C436.732 601.034 429.345 589.986 414.067 591.201ZM401.551 618.554L393.312 594.39C392.38 591.659 392.002 588.486 390.313 586.34C388.624 584.193 385.578 581.826 383.163 581.857C380.748 581.889 377.654 584.525 376.707 586.782C373.196 595.271 370.115 603.931 367.474 612.73C366.811 614.924 368.089 617.717 368.484 620.227C370.662 618.807 373.472 617.844 374.908 615.887C379.138 610.078 387.535 609.936 391.134 616.171C393.517 620.275 396.263 621.932 401.551 618.554ZM466.8 598.399C466.8 599.582 466.8 600.75 466.926 601.934C464.274 602.423 460.976 602.108 459.129 603.512C455.972 606.038 451.995 609.605 451.806 612.983C451.679 615.587 456.383 620.133 459.697 620.874C471.772 623.763 476.159 619.659 476.081 607.064C476.081 606.022 476.081 604.965 476.081 603.907C475.702 592.227 467.605 587.192 457.046 592.243C455.467 592.985 454.631 595.084 453.431 596.567C455.079 597.319 456.805 597.885 458.577 598.256C461.313 598.45 464.058 598.498 466.8 598.399ZM446.502 606.29H446.597C446.597 602.897 447.07 599.393 446.407 596.125C446.044 594.374 443.693 592.969 442.241 591.533C440.741 592.985 438.058 594.358 437.948 595.905C437.514 602.7 437.514 609.517 437.948 616.313C438.042 617.765 440.599 620.416 441.562 620.227C443.393 619.864 445.934 618.081 446.297 616.455C447.023 613.172 446.502 609.652 446.502 606.243V606.29ZM448.586 583.846C445.303 581.873 443.361 579.774 441.814 580.026C440.268 580.279 438.516 582.741 437.995 584.556C437.79 585.314 440.583 587.95 441.909 587.887C443.693 587.744 445.382 585.866 448.586 583.799V583.846Z" fill="#121212"/>
<path d="M338.134 683.44C326.312 686.597 315.816 688.996 305.635 692.389C302.285 693.824 299.585 696.451 298.059 699.76C292.977 710.904 292.093 722.315 297.286 733.979C298.475 737.187 298.58 740.697 297.586 743.97C293.295 758.65 284.621 771.668 272.727 781.282C270.991 782.687 268.244 784.282 266.413 783.871C255.018 781.314 246.226 787.659 236.535 791.431C232.327 793.115 227.689 793.397 223.308 792.236C209.908 787.833 196.95 782.103 183.597 777.542C179.313 776.013 174.674 775.782 170.26 776.879C160.49 779.893 151.225 784.455 141.549 787.77C137.613 788.922 133.494 789.313 129.412 788.922C125.261 788.669 121.22 787.107 117.069 786.523C102.99 784.534 90.2369 779.957 79.5356 770.045C75.1636 765.988 69.7183 763.037 64.6518 759.77C54.8029 753.456 53.5243 750.836 55.9077 739.172C56.8857 733.206 58.4074 727.341 60.4535 721.652C64.7624 711.093 62.6629 701.134 59.3642 690.985C57.7858 686.25 55.5289 684.435 50.415 684.308C42.321 684.203 34.2535 683.358 26.3135 681.783C16.7328 679.747 13.0552 674.538 17.1747 665.999C23.1251 653.625 19.0845 644.06 13.1656 633.659C10.7315 629.066 9.43782 623.956 9.39351 618.759C9.12519 603.686 6.89983 588.376 18.2009 575.149C23.8198 568.583 25.2243 559.65 24.6403 550.558C24.0247 540.883 27.45 536.874 37.0938 534.775C43.4861 533.37 50.21 533.275 56.476 531.492C61.2111 530.118 65.4882 526.946 70.0181 524.705C75.0373 522.211 79.9145 518.391 85.1863 517.728C99.3915 515.755 113.928 514.84 128.339 514.067C135.915 513.656 140.965 510.594 146.553 505.212C155.69 496.303 165.84 488.494 176.794 481.947C187.511 475.634 196.097 484.504 204.62 489.586C213.585 494.937 222.109 501.014 230.853 506.743C235.193 509.584 238.603 508.716 241.428 504.297C253.092 485.94 272.727 477.67 289.931 466.416C290.911 465.97 291.983 465.764 293.059 465.813C294.134 465.862 295.183 466.166 296.118 466.7C314.048 480.905 331.694 495.379 349.593 509.553C353.917 512.993 354.738 516.75 353.886 521.943C350.84 540.646 343.737 557.787 334.188 573.934C330.889 579.521 330.589 583.877 335.135 588.707C347.762 602.044 346.183 618.333 340.501 632.901C333.951 649.632 333.683 665.747 338.134 683.44ZM123.919 637.778H123.998C123.998 640.667 123.477 643.681 124.156 646.396C124.692 648.495 126.729 650.216 128.102 652.11C129.68 650.105 131.89 648.306 132.663 646.033C133.437 643.76 132.332 640.698 133.011 638.252C134.038 635.575 135.356 633.018 136.941 630.628C138.377 633.012 140.318 635.237 141.092 637.81C141.865 640.383 140.776 643.16 141.439 645.607C142.102 648.053 143.917 650.01 145.211 652.204C146.711 649.9 148.905 647.785 149.504 645.276C150.309 642.04 149.331 638.378 150.12 635.127C150.546 633.375 153.056 632.112 154.634 630.628C155.786 632.207 157.79 633.58 157.964 635.237C158.517 639.372 157.964 643.665 158.564 647.864C158.801 649.442 160.79 651.857 162.147 651.984C163.504 652.11 166.614 649.932 166.582 648.827C166.424 641.551 166.282 634.132 164.609 627.124C164.12 625.041 158.785 622.973 155.612 622.895C147.721 622.737 139.466 625.041 131.732 623.873C123.998 622.705 123.84 626.32 123.84 631.528C123.935 633.564 123.919 635.663 123.919 637.778ZM201.148 637.368C201.148 627.772 195.892 622.2 186.943 622.263C177.71 622.263 172.217 628.135 172.154 637.921C172.154 647.249 177.71 653.294 186.359 653.167C195.419 653.12 201.195 646.807 201.148 637.336V637.368ZM116.406 632.112H116.517C116.757 627.651 116.688 623.179 116.311 618.727C116.043 616.77 113.66 615.113 112.239 613.314C110.661 615.066 107.978 616.755 107.899 618.554C107.472 628.024 107.472 637.494 107.899 646.964C107.993 648.764 110.819 650.421 112.366 652.141C113.707 650.468 115.996 648.906 116.185 647.106C116.528 642.116 116.602 637.11 116.406 632.112Z" fill="#121212"/>
<path fill-rule="evenodd" clip-rule="evenodd" d="M13.9522 522.211C-4.68816 539.542 -1.45223 559.492 6.36064 582.457C8.28692 580.332 10.069 578.08 11.6953 575.717C16.7303 566.642 20.3289 557.156 18.8295 546.455C17.9456 540.157 20.2815 535.248 26.2161 533.26C30.3509 531.868 34.5964 530.8 38.8419 529.732C42.9264 528.705 47.0109 527.678 50.9966 526.362C56.4125 524.275 61.6851 521.834 66.7802 519.055C68.1649 518.378 69.5227 517.535 70.8772 516.693C73.5368 515.041 76.1836 513.396 78.9967 513.041C88.2436 511.866 97.5295 511.033 106.814 510.199C114.248 509.531 121.682 508.864 129.094 508.022C132.629 507.627 137.254 506.175 139.1 503.587C146.882 492.759 157.504 485.467 168.742 479.343C174.519 476.186 182.505 473.487 188.392 474.971C194.605 476.506 200.305 480.243 205.962 483.951C207.865 485.198 209.762 486.442 211.673 487.598C216.541 490.539 221.232 493.757 225.922 496.973C226.844 497.605 227.765 498.237 228.688 498.867C233.297 502.008 236.296 500.903 239.91 496.61C244.711 490.794 250.232 485.612 256.341 481.19C262.059 477.195 267.98 473.489 273.899 469.784C280.446 465.686 286.992 461.589 293.259 457.104C296.056 455.098 297.966 451.842 299.876 448.587C300.747 447.103 301.617 445.62 302.571 444.256C301.559 443.633 300.572 442.936 299.587 442.24C297.451 440.731 295.319 439.224 292.943 438.479C285.682 436.222 281.642 431.676 279.495 424.526C278.211 419.974 276.185 415.666 273.498 411.774C255.041 386.52 236.416 361.403 217.624 336.423C211.836 328.728 205.923 321.12 200.011 313.512C188.992 299.334 177.973 285.156 167.763 270.416C161.482 261.34 155.594 256.21 144.467 257.962C136.089 259.282 129.375 255.402 122.688 251.539C120.494 250.271 118.303 249.005 116.056 247.924C115.253 247.287 114.611 246.468 114.183 245.536C113.755 244.603 113.553 243.583 113.594 242.558C113.81 240.151 113.952 237.705 114.094 235.253C114.532 227.667 114.975 220.018 117.635 213.279C122.78 200.29 126.142 187.426 125.527 173.599C125.29 169.622 124.548 165.061 122.37 161.904C116.404 153.286 112.805 144.637 116.325 134.03C116.832 132.332 116.877 130.451 116.933 128.142C116.963 126.93 116.995 125.601 117.098 124.118C115.877 124.869 114.707 125.47 113.637 126.021C111.582 127.077 109.893 127.946 108.906 129.326C101.273 139.613 94.1662 150.281 87.6144 161.288C85.2681 165.918 84.7063 171.249 86.0361 176.267C90.9531 192.145 92.4645 208.883 90.4713 225.385C90.0668 228.74 88.6196 231.984 87.1635 235.248C86.2905 237.205 85.4142 239.169 84.7575 241.169C83.3797 245.426 82.2881 249.771 81.4902 254.175C81.1418 256.11 80.978 258.093 80.8145 260.073C80.578 262.937 80.342 265.793 79.5489 268.49C76.0342 280.406 68.7589 290.865 58.8094 298.305C55.1289 301.281 51.836 304.706 49.0079 308.501C42.3472 316.977 39.9481 326.937 44.2728 336.675C49.2598 347.92 49.8824 359.519 50.5125 371.258C50.6103 373.08 50.7083 374.906 50.8228 376.734C52.4012 401.924 48.9447 426.626 43.7992 451.059C43.6416 451.809 43.4849 452.56 43.328 453.311C39.6348 470.996 35.8879 488.939 20.5658 501.566C19.1266 502.759 18.7787 505.116 18.4102 507.614C18.2129 508.951 18.0096 510.329 17.6299 511.589C17.3088 512.655 17.0686 513.819 16.8273 514.99C16.2501 517.788 15.6662 520.62 13.9522 522.211ZM149.217 442.365C149.265 441.412 149.312 440.461 149.312 439.521C149.312 438.642 149.31 437.765 149.309 436.889C149.305 435.135 149.302 433.381 149.312 431.613C149.36 426.815 150.654 424.921 156.478 425.553C163.265 426.314 170.295 425.654 177.248 425.001C178.218 424.91 179.187 424.819 180.153 424.732C186.009 424.195 190.429 425.916 191.407 431.803C192.265 437.776 192.508 443.821 192.133 449.843C192.09 450.905 190.82 451.907 189.548 452.911C188.966 453.37 188.385 453.829 187.919 454.294C187.485 453.79 186.958 453.303 186.431 452.817C185.31 451.783 184.193 450.751 183.989 449.559C183.664 447.615 183.689 445.626 183.715 443.64C183.741 441.676 183.766 439.715 183.452 437.801C183.253 436.547 182.125 435.434 181.013 434.336C180.542 433.871 180.074 433.409 179.68 432.939C179.243 433.456 178.719 433.955 178.194 434.454C177.052 435.542 175.909 436.629 175.671 437.895C175.341 439.702 175.39 441.568 175.44 443.424C175.489 445.297 175.538 447.16 175.197 448.944C174.925 450.316 173.788 451.531 172.653 452.744C172.143 453.288 171.634 453.832 171.204 454.389C170.761 453.846 170.234 453.322 169.708 452.799C168.567 451.663 167.429 450.53 167.148 449.212C166.806 447.598 166.877 445.878 166.947 444.171C167.019 442.405 167.091 440.653 166.706 439.048C166.335 437.476 165.125 436.1 163.918 434.727C163.381 434.115 162.843 433.504 162.381 432.876C161.963 433.486 161.473 434.081 160.983 434.678C159.899 435.996 158.813 437.317 158.498 438.795C158.147 440.421 158.197 442.132 158.248 443.842C158.3 445.585 158.352 447.326 157.977 448.975C157.663 450.339 156.481 451.502 155.296 452.669C154.753 453.204 154.209 453.739 153.747 454.294C153.292 453.757 152.762 453.237 152.233 452.717C151.037 451.543 149.841 450.369 149.502 448.991C148.992 446.863 149.105 444.611 149.217 442.365ZM84.8839 452.716L82.232 455.178L74.6878 450.696C73.8402 450.197 72.999 449.574 72.163 448.955C70.3525 447.614 68.5669 446.292 66.796 446.292C64.5304 446.316 62.2469 447.721 60.026 449.088C59.2917 449.54 58.5642 449.988 57.8464 450.38C56.9683 450.861 56.108 451.398 55.2563 451.96V443.199H51.6663C51.6881 443.135 51.7099 443.071 51.7317 443.007C54.484 434.956 57.2365 426.903 60.3246 418.986C62.1081 414.425 70.2681 413.51 72.0517 417.724C75.5413 425.954 78.4826 434.413 81.4237 442.871C82.5664 446.157 83.7091 449.443 84.8839 452.716ZM207.996 420.044C208.56 421.427 208.921 422.883 209.069 424.369C224.411 425.142 229.666 432.15 225.862 446.134C224.063 452.732 218.776 456.015 212.115 454.626C211.736 454.547 211.365 454.409 210.994 454.271C210.624 454.133 210.253 453.995 209.874 453.916C199.11 451.801 199.109 451.801 199.109 440.01C199.109 438.153 199.082 436.295 199.054 434.438C198.984 429.712 198.914 424.992 199.299 420.312C199.44 418.517 200.522 416.81 201.605 415.101C202.103 414.316 202.601 413.531 203.008 412.736C203.474 413.402 203.951 414.063 204.428 414.723C205.679 416.457 206.933 418.193 207.996 420.044ZM135.265 435.496L134.981 432.529C134.244 432.529 133.499 432.537 132.748 432.546C130.572 432.57 128.357 432.594 126.221 432.418C124.584 432.198 122.968 431.839 121.391 431.345C121.687 430.833 121.966 430.194 122.244 429.555C122.841 428.185 123.436 426.818 124.201 426.721C124.988 426.613 125.794 426.488 126.608 426.363C130.917 425.698 135.479 424.994 139.037 426.468C141.012 427.287 141.998 430.524 142.97 433.717C143.365 435.014 143.758 436.305 144.214 437.422C144.401 438.466 144.401 439.535 144.214 440.579C144.214 455.541 143.551 456.252 128.431 455.02C123.553 454.626 119.876 452.448 119.481 446.971C119.087 441.494 122.243 438.858 126.979 437.501C128.837 436.963 130.724 436.536 132.611 436.109C133.497 435.909 134.383 435.708 135.265 435.496ZM266.537 435.828L266.442 432.529L250.422 432.45C255.315 424.148 261.407 423.801 267.626 425.016C273.245 426.215 275.707 430.335 275.518 436.064V439.979C275.534 455.415 275.534 455.478 260.097 455.115C255.141 455.005 251.464 452.826 250.864 447.444C250.264 442.062 253.184 439.063 257.919 437.659C259.838 437.098 261.816 436.729 263.793 436.36C264.71 436.189 265.627 436.018 266.537 435.828ZM87.6618 439.979H87.5828V439.915C87.5828 439.204 87.5786 438.492 87.5743 437.781C87.5643 436.13 87.5545 434.488 87.5986 432.876C87.7565 428.046 87.9459 423.138 95.0958 426.294C95.8481 426.523 96.6454 426.561 97.416 426.405C111.605 424.653 113.452 426.168 113.452 440.121C113.456 440.9 113.491 441.689 113.527 442.479C113.622 444.619 113.718 446.767 113.2 448.739C112.84 450.135 111.741 451.342 110.644 452.549C110.153 453.088 109.662 453.628 109.238 454.184C108.866 453.65 108.423 453.128 107.981 452.606C106.998 451.446 106.015 450.286 105.797 448.991C105.527 447.331 105.554 445.614 105.582 443.899C105.613 441.912 105.645 439.927 105.213 438.037C104.912 436.727 103.625 435.629 102.336 434.529C101.731 434.012 101.125 433.495 100.62 432.955C100.211 433.494 99.722 434.016 99.2335 434.538C98.1758 435.668 97.1217 436.795 96.895 438.069C96.598 439.836 96.6463 441.643 96.6944 443.439C96.7459 445.365 96.7972 447.279 96.4214 449.117C96.1497 450.476 94.9572 451.663 93.7668 452.847C93.2287 453.383 92.691 453.918 92.2389 454.468C91.7667 453.957 91.2148 453.465 90.6631 452.973C89.426 451.871 88.1894 450.77 87.851 449.449C87.3309 447.324 87.4471 445.075 87.5631 442.832C87.6125 441.877 87.6618 440.922 87.6618 439.979ZM232.492 431.74C232.508 426.957 233.865 423.816 239.657 426.136L240.32 426.279C241.316 426.403 242.511 426.427 243.706 426.451C246.302 426.503 248.893 426.555 249.412 427.636C251.181 431.27 248.87 432.083 246.497 432.918C245.355 433.32 244.2 433.727 243.477 434.454C242.272 436.119 241.606 438.113 241.567 440.168C241.423 441.358 241.481 442.592 241.538 443.817C241.619 445.533 241.699 447.232 241.22 448.77C240.758 450.254 239.504 451.496 238.253 452.735C237.668 453.316 237.083 453.896 236.58 454.499C236.15 453.93 235.619 453.369 235.088 452.81C233.943 451.602 232.8 450.396 232.681 449.102C232.306 444.954 232.373 440.782 232.44 436.61C232.466 434.986 232.492 433.362 232.492 431.74Z" fill="#121212"/>
<path d="M418.076 445.207C419.874 446.105 423.873 449.116 425.491 453.969C426.389 461.833 432.096 478.639 447.734 482.953C452.003 481.38 461.619 479.583 465.933 484.975C469.304 489.469 477.931 498.456 485.481 498.456L519.183 503.849C525.474 504.073 538.461 508.297 540.078 523.396C541.651 528.339 547.762 537.146 559.626 532.833" stroke="white" stroke-dasharray="2 2"/>
<path d="M559.625 532.832L565.691 530.136" stroke="white" stroke-dasharray="1 1"/>
<path d="M307.533 439.14L296.748 460.036L286.637 464.08C274.28 472.168 249.295 488.75 248.217 490.368L240.802 499.13C239.23 502.95 233.927 508.297 225.299 499.13L196.315 480.257C191.148 476.437 176.903 472.573 161.265 487.672L143.74 503.849C140.819 506.994 131.877 512.881 119.474 511.263C109.364 511.937 87.7941 513.555 82.4017 514.633C79.7056 515.532 73.5043 517.869 70.2689 520.026C65.5506 523.171 54.2267 529.597 46.6774 530.136C37.2407 530.586 19.0415 534.72 21.7377 547.662C21.0633 556.424 17.9621 575.297 10.952 580.69L8.25586 584.06" stroke="white" stroke-dasharray="2 2"/>
<path d="M295.399 461.384L323.035 483.627L351.345 505.871C354.49 507.668 359.838 514.229 356.063 526.092L347.974 552.38L336.516 575.297C335.617 577.769 335.168 584.06 340.56 589.452C345.728 593.497 352.962 610.482 340.56 646.072C338.313 652.138 335.168 667.102 340.56 678.426C341.234 681.796 340.83 688.267 333.819 687.189C322.361 687.863 299.174 692.851 298.095 707.41C297.421 713.027 296.882 726.149 300.117 733.698C302.139 740.438 300.117 759.986 275.852 784.251" stroke="white" stroke-dasharray="2 2"/>
<path d="M521.879 126.378C511.362 132.617 490.189 149.374 489.64 166.488C488.039 179.635 481.271 208.202 467.004 217.293C462.888 219.522 454.382 224.647 453.285 227.321C456.257 234.674 463.711 252.055 469.748 262.751C473.635 268.768 474.412 289.357 446.426 323.584C440.709 327.595 431.746 342.302 441.624 369.042C438.88 375.727 435.587 390.835 444.367 397.788C447.111 401.13 449.718 408.35 438.194 410.489C433.85 411.158 426.67 415.035 432.706 425.196C436.593 429.207 441.486 438.299 429.962 442.577C420.13 445.028 397.997 450.064 388.12 450.599C372.114 449.262 337.908 444.716 329.128 437.229C327.985 435.669 322.955 433.753 311.98 438.566C310.379 438.566 305.669 437.898 299.633 435.224C296.203 433.664 289.069 428.405 287.972 419.848L246.129 361.02L176.849 272.779L170.675 264.757C169.075 260.969 162.719 253.927 150.097 256.066C145.524 256.066 134.732 254.863 128.147 250.05C124.717 249.381 118.407 245.771 120.602 236.68C120.373 230.663 121.15 217.026 126.089 210.608C129.747 199.021 136.104 174.108 132.262 167.156C127.232 160.694 118.269 145.229 122.659 135.068V125.709" stroke="white" stroke-dasharray="2 2"/>
<path d="M555.708 334V317.61H566.378V319.59H557.864V324.782H565.938V326.762H557.864V332.02H566.378V334H555.708ZM574.946 334.264C573.992 334.264 573.12 334.051 572.328 333.626C571.55 333.201 570.949 332.599 570.524 331.822L570.81 331.47V334H568.808V317.346H570.854V324.694L570.546 324.188C570.986 323.484 571.587 322.927 572.35 322.516C573.112 322.091 573.985 321.878 574.968 321.878C576.082 321.878 577.08 322.149 577.96 322.692C578.854 323.235 579.558 323.975 580.072 324.914C580.585 325.838 580.842 326.894 580.842 328.082C580.842 329.241 580.585 330.289 580.072 331.228C579.558 332.167 578.854 332.907 577.96 333.45C577.08 333.993 576.075 334.264 574.946 334.264ZM574.792 332.284C575.54 332.284 576.207 332.101 576.794 331.734C577.38 331.367 577.835 330.869 578.158 330.238C578.495 329.593 578.664 328.874 578.664 328.082C578.664 327.261 578.495 326.542 578.158 325.926C577.835 325.295 577.38 324.797 576.794 324.43C576.207 324.049 575.54 323.858 574.792 323.858C574.044 323.858 573.369 324.041 572.768 324.408C572.181 324.775 571.712 325.281 571.36 325.926C571.022 326.557 570.854 327.275 570.854 328.082C570.854 328.874 571.022 329.593 571.36 330.238C571.712 330.869 572.181 331.367 572.768 331.734C573.369 332.101 574.044 332.284 574.792 332.284ZM589.156 334.264C588.012 334.264 586.978 334 586.054 333.472C585.13 332.929 584.397 332.189 583.854 331.25C583.312 330.311 583.04 329.248 583.04 328.06C583.04 326.872 583.304 325.816 583.832 324.892C584.375 323.968 585.108 323.235 586.032 322.692C586.956 322.149 587.998 321.878 589.156 321.878C590.3 321.878 591.334 322.149 592.258 322.692C593.182 323.22 593.908 323.946 594.436 324.87C594.979 325.794 595.25 326.857 595.25 328.06C595.25 329.263 594.972 330.333 594.414 331.272C593.857 332.196 593.116 332.929 592.192 333.472C591.283 334 590.271 334.264 589.156 334.264ZM589.156 332.284C589.89 332.284 590.55 332.101 591.136 331.734C591.738 331.367 592.207 330.861 592.544 330.216C592.896 329.571 593.072 328.852 593.072 328.06C593.072 327.253 592.896 326.542 592.544 325.926C592.207 325.295 591.738 324.797 591.136 324.43C590.55 324.049 589.89 323.858 589.156 323.858C588.408 323.858 587.734 324.049 587.132 324.43C586.546 324.797 586.076 325.295 585.724 325.926C585.372 326.542 585.196 327.253 585.196 328.06C585.196 328.852 585.372 329.571 585.724 330.216C586.076 330.861 586.546 331.367 587.132 331.734C587.734 332.101 588.408 332.284 589.156 332.284ZM597.919 334V322.142H599.921V324.452L599.591 324.254C599.884 323.506 600.354 322.927 600.999 322.516C601.659 322.091 602.429 321.878 603.309 321.878C604.16 321.878 604.915 322.069 605.575 322.45C606.25 322.831 606.778 323.359 607.159 324.034C607.555 324.709 607.753 325.471 607.753 326.322V334H605.685V326.982C605.685 326.322 605.568 325.765 605.333 325.31C605.098 324.855 604.761 324.503 604.321 324.254C603.896 323.99 603.404 323.858 602.847 323.858C602.29 323.858 601.791 323.99 601.351 324.254C600.926 324.503 600.588 324.863 600.339 325.332C600.09 325.787 599.965 326.337 599.965 326.982V334H597.919ZM611.104 338.84C610.84 338.84 610.576 338.818 610.312 338.774C610.048 338.745 609.799 338.679 609.564 338.576V336.75C609.725 336.765 609.923 336.794 610.158 336.838C610.407 336.882 610.649 336.904 610.884 336.904C611.573 336.904 612.094 336.75 612.446 336.442C612.813 336.134 613.157 335.613 613.48 334.88L614.228 333.098L614.184 334.88L609.124 322.142H611.346L615.284 332.262H614.624L618.54 322.142H620.806L615.46 335.408C615.211 336.039 614.888 336.618 614.492 337.146C614.111 337.674 613.641 338.085 613.084 338.378C612.527 338.686 611.867 338.84 611.104 338.84ZM622.626 334V322.142H624.672V334H622.626ZM622.626 320.25V317.61H624.672V320.25H622.626Z" fill="white"/>
<path d="M504.243 312C509.397 312 513.572 316.178 513.572 321.329C513.572 325.193 506.641 334.64 504.243 338.962C501.945 334.814 494.914 324.966 494.914 321.329C494.914 316.178 499.092 312 504.243 312ZM508.413 320.978C508.413 318.682 506.54 316.809 504.243 316.809C501.948 316.809 500.075 318.682 500.075 320.978C500.075 323.273 501.948 325.146 504.243 325.146C506.54 325.146 508.413 323.273 508.413 320.978Z" fill="white"/>
<path d="M285.398 230.943V214.553H296.068V216.533H287.554V221.725H295.628V223.705H287.554V228.963H296.068V230.943H285.398ZM298.498 230.943V219.085H300.5V221.395L300.17 221.197C300.463 220.449 300.933 219.869 301.578 219.459C302.238 219.033 303.008 218.821 303.888 218.821C304.739 218.821 305.494 219.011 306.154 219.393C306.829 219.774 307.357 220.302 307.738 220.977C308.134 221.651 308.332 222.414 308.332 223.265V230.943H306.264V223.925C306.264 223.265 306.147 222.707 305.912 222.253C305.677 221.798 305.34 221.446 304.9 221.197C304.475 220.933 303.983 220.801 303.426 220.801C302.869 220.801 302.37 220.933 301.93 221.197C301.505 221.446 301.167 221.805 300.918 222.275C300.669 222.729 300.544 223.279 300.544 223.925V230.943H298.498ZM315.462 231.207C314.611 231.207 313.841 231.009 313.152 230.613C312.477 230.217 311.949 229.667 311.568 228.963C311.201 228.244 311.018 227.423 311.018 226.499V219.085H313.064V226.279C313.064 226.865 313.181 227.379 313.416 227.819C313.665 228.259 314.002 228.603 314.428 228.853C314.868 229.102 315.366 229.227 315.924 229.227C316.481 229.227 316.972 229.102 317.398 228.853C317.838 228.603 318.175 228.244 318.41 227.775C318.659 227.305 318.784 226.748 318.784 226.103V219.085H320.852V230.943H318.85V228.633L319.18 228.831C318.901 229.579 318.424 230.165 317.75 230.591C317.09 231.001 316.327 231.207 315.462 231.207ZM329.676 235.783C328.84 235.783 328.062 235.651 327.344 235.387C326.64 235.123 326.031 234.756 325.518 234.287C325.019 233.832 324.638 233.297 324.374 232.681L326.288 231.801C326.493 232.358 326.882 232.827 327.454 233.209C328.04 233.605 328.774 233.803 329.654 233.803C330.328 233.803 330.937 233.671 331.48 233.407C332.037 233.157 332.477 232.776 332.8 232.263C333.122 231.764 333.284 231.155 333.284 230.437V227.775L333.658 228.171C333.247 228.977 332.653 229.593 331.876 230.019C331.113 230.444 330.27 230.657 329.346 230.657C328.231 230.657 327.234 230.4 326.354 229.887C325.474 229.359 324.784 228.647 324.286 227.753C323.787 226.843 323.538 225.839 323.538 224.739C323.538 223.624 323.787 222.619 324.286 221.725C324.784 220.83 325.466 220.126 326.332 219.613C327.212 219.085 328.209 218.821 329.324 218.821C330.248 218.821 331.084 219.033 331.832 219.459C332.594 219.869 333.203 220.441 333.658 221.175L333.35 221.725V219.085H335.352V230.437C335.352 231.463 335.11 232.38 334.626 233.187C334.142 233.993 333.467 234.624 332.602 235.079C331.751 235.548 330.776 235.783 329.676 235.783ZM329.522 228.677C330.226 228.677 330.856 228.501 331.414 228.149C331.986 227.797 332.44 227.327 332.778 226.741C333.115 226.139 333.284 225.472 333.284 224.739C333.284 224.02 333.115 223.36 332.778 222.759C332.44 222.157 331.986 221.681 331.414 221.329C330.856 220.977 330.226 220.801 329.522 220.801C328.803 220.801 328.15 220.977 327.564 221.329C326.977 221.681 326.515 222.157 326.178 222.759C325.855 223.345 325.694 224.005 325.694 224.739C325.694 225.472 325.855 226.139 326.178 226.741C326.515 227.327 326.97 227.797 327.542 228.149C328.128 228.501 328.788 228.677 329.522 228.677ZM342.725 231.207C341.875 231.207 341.105 231.009 340.415 230.613C339.741 230.217 339.213 229.667 338.831 228.963C338.465 228.244 338.281 227.423 338.281 226.499V219.085H340.327V226.279C340.327 226.865 340.445 227.379 340.679 227.819C340.929 228.259 341.266 228.603 341.691 228.853C342.131 229.102 342.63 229.227 343.187 229.227C343.745 229.227 344.236 229.102 344.661 228.853C345.101 228.603 345.439 228.244 345.673 227.775C345.923 227.305 346.047 226.748 346.047 226.103V219.085H348.115V230.943H346.113V228.633L346.443 228.831C346.165 229.579 345.688 230.165 345.013 230.591C344.353 231.001 343.591 231.207 342.725 231.207Z" fill="white"/>
<path d="M233.329 204C238.482 204 242.658 208.178 242.658 213.329C242.658 217.193 235.727 226.64 233.329 230.962C231.031 226.814 224 216.966 224 213.329C224 208.178 228.178 204 233.329 204ZM237.499 212.978C237.499 210.682 235.626 208.809 233.329 208.809C231.034 208.809 229.161 210.682 229.161 212.978C229.161 215.273 231.034 217.146 233.329 217.146C235.626 217.146 237.499 215.273 237.499 212.978Z" fill="white"/>
<path d="M139.414 415L145.288 398.61H147.84L153.714 415H151.404L150.062 411.15H143.066L141.724 415H139.414ZM143.748 409.17H149.38L146.256 400.172H146.872L143.748 409.17ZM155.537 415V403.142H157.539V405.452L157.209 405.254C157.502 404.506 157.972 403.927 158.617 403.516C159.277 403.091 160.047 402.878 160.927 402.878C161.778 402.878 162.533 403.069 163.193 403.45C163.868 403.831 164.396 404.359 164.777 405.034C165.173 405.709 165.371 406.471 165.371 407.322V415H163.303V407.982C163.303 407.322 163.186 406.765 162.951 406.31C162.716 405.855 162.379 405.503 161.939 405.254C161.514 404.99 161.022 404.858 160.465 404.858C159.908 404.858 159.409 404.99 158.969 405.254C158.544 405.503 158.206 405.863 157.957 406.332C157.708 406.787 157.583 407.337 157.583 407.982V415H155.537ZM171.775 415.264C170.998 415.264 170.308 415.125 169.707 414.846C169.12 414.553 168.658 414.157 168.321 413.658C167.984 413.145 167.815 412.558 167.815 411.898C167.815 411.267 167.947 410.703 168.211 410.204C168.49 409.691 168.915 409.258 169.487 408.906C170.074 408.554 170.807 408.305 171.687 408.158L176.087 407.432V409.148L172.149 409.808C171.386 409.94 170.829 410.182 170.477 410.534C170.14 410.886 169.971 411.319 169.971 411.832C169.971 412.316 170.162 412.719 170.543 413.042C170.939 413.365 171.43 413.526 172.017 413.526C172.765 413.526 173.41 413.372 173.953 413.064C174.51 412.741 174.943 412.309 175.251 411.766C175.574 411.223 175.735 410.622 175.735 409.962V406.948C175.735 406.303 175.493 405.782 175.009 405.386C174.54 404.975 173.916 404.77 173.139 404.77C172.464 404.77 171.863 404.946 171.335 405.298C170.822 405.635 170.44 406.09 170.191 406.662L168.409 405.738C168.629 405.195 168.981 404.711 169.465 404.286C169.949 403.846 170.514 403.501 171.159 403.252C171.804 403.003 172.479 402.878 173.183 402.878C174.092 402.878 174.892 403.054 175.581 403.406C176.27 403.743 176.806 404.22 177.187 404.836C177.583 405.437 177.781 406.141 177.781 406.948V415H175.779V412.756L176.153 412.888C175.904 413.357 175.566 413.768 175.141 414.12C174.716 414.472 174.217 414.751 173.645 414.956C173.073 415.161 172.45 415.264 171.775 415.264ZM180.953 415V403.142H182.955V405.562L182.669 405.188C182.962 404.44 183.432 403.868 184.077 403.472C184.722 403.076 185.448 402.878 186.255 402.878C187.179 402.878 188.008 403.135 188.741 403.648C189.489 404.161 190.002 404.836 190.281 405.672L189.709 405.694C190.017 404.77 190.538 404.073 191.271 403.604C192.004 403.12 192.818 402.878 193.713 402.878C194.534 402.878 195.275 403.069 195.935 403.45C196.61 403.831 197.145 404.359 197.541 405.034C197.937 405.709 198.135 406.471 198.135 407.322V415H196.067V407.982C196.067 407.322 195.95 406.765 195.715 406.31C195.48 405.855 195.158 405.503 194.747 405.254C194.351 404.99 193.882 404.858 193.339 404.858C192.811 404.858 192.334 404.99 191.909 405.254C191.498 405.503 191.168 405.863 190.919 406.332C190.684 406.787 190.567 407.337 190.567 407.982V415H188.499V407.982C188.499 407.322 188.382 406.765 188.147 406.31C187.912 405.855 187.59 405.503 187.179 405.254C186.783 404.99 186.314 404.858 185.771 404.858C185.243 404.858 184.766 404.99 184.341 405.254C183.93 405.503 183.6 405.863 183.351 406.332C183.116 406.787 182.999 407.337 182.999 407.982V415H180.953ZM207.179 415.264C206.226 415.264 205.353 415.051 204.561 414.626C203.784 414.201 203.182 413.599 202.757 412.822L203.043 412.47V415H201.041V398.346H203.087V405.694L202.779 405.188C203.219 404.484 203.82 403.927 204.583 403.516C205.346 403.091 206.218 402.878 207.201 402.878C208.316 402.878 209.313 403.149 210.193 403.692C211.088 404.235 211.792 404.975 212.305 405.914C212.818 406.838 213.075 407.894 213.075 409.082C213.075 410.241 212.818 411.289 212.305 412.228C211.792 413.167 211.088 413.907 210.193 414.45C209.313 414.993 208.308 415.264 207.179 415.264ZM207.025 413.284C207.773 413.284 208.44 413.101 209.027 412.734C209.614 412.367 210.068 411.869 210.391 411.238C210.728 410.593 210.897 409.874 210.897 409.082C210.897 408.261 210.728 407.542 210.391 406.926C210.068 406.295 209.614 405.797 209.027 405.43C208.44 405.049 207.773 404.858 207.025 404.858C206.277 404.858 205.602 405.041 205.001 405.408C204.414 405.775 203.945 406.281 203.593 406.926C203.256 407.557 203.087 408.275 203.087 409.082C203.087 409.874 203.256 410.593 203.593 411.238C203.945 411.869 204.414 412.367 205.001 412.734C205.602 413.101 206.277 413.284 207.025 413.284ZM215.758 415V403.142H217.76V405.32L217.54 405.012C217.818 404.337 218.244 403.839 218.816 403.516C219.388 403.179 220.084 403.01 220.906 403.01H221.632V404.946H220.598C219.762 404.946 219.087 405.21 218.574 405.738C218.06 406.251 217.804 406.985 217.804 407.938V415H215.758ZM226.925 415.264C226.148 415.264 225.459 415.125 224.857 414.846C224.271 414.553 223.809 414.157 223.471 413.658C223.134 413.145 222.965 412.558 222.965 411.898C222.965 411.267 223.097 410.703 223.361 410.204C223.64 409.691 224.065 409.258 224.637 408.906C225.224 408.554 225.957 408.305 226.837 408.158L231.237 407.432V409.148L227.299 409.808C226.537 409.94 225.979 410.182 225.627 410.534C225.29 410.886 225.121 411.319 225.121 411.832C225.121 412.316 225.312 412.719 225.693 413.042C226.089 413.365 226.581 413.526 227.167 413.526C227.915 413.526 228.561 413.372 229.103 413.064C229.661 412.741 230.093 412.309 230.401 411.766C230.724 411.223 230.885 410.622 230.885 409.962V406.948C230.885 406.303 230.643 405.782 230.159 405.386C229.69 404.975 229.067 404.77 228.289 404.77C227.615 404.77 227.013 404.946 226.485 405.298C225.972 405.635 225.591 406.09 225.341 406.662L223.559 405.738C223.779 405.195 224.131 404.711 224.615 404.286C225.099 403.846 225.664 403.501 226.309 403.252C226.955 403.003 227.629 402.878 228.333 402.878C229.243 402.878 230.042 403.054 230.731 403.406C231.421 403.743 231.956 404.22 232.337 404.836C232.733 405.437 232.931 406.141 232.931 406.948V415H230.929V412.756L231.303 412.888C231.054 413.357 230.717 413.768 230.291 414.12C229.866 414.472 229.367 414.751 228.795 414.956C228.223 415.161 227.6 415.264 226.925 415.264Z" fill="white"/>
<path d="M89.3292 393C94.4825 393 98.6583 397.178 98.6583 402.329C98.6583 406.193 91.7265 415.64 89.3292 419.962C87.0308 415.814 80 405.966 80 402.329C80 397.178 84.1777 393 89.3292 393ZM93.499 401.978C93.499 399.682 91.6263 397.809 89.3292 397.809C87.0339 397.809 85.1611 399.682 85.1611 401.978C85.1611 404.273 87.0339 406.146 89.3292 406.146C91.6263 406.146 93.499 404.273 93.499 401.978Z" fill="white"/>
<path d="M189.081 638V621.61H191.237V638H189.081ZM194.64 638V626.142H196.642V628.562L196.356 628.188C196.649 627.44 197.118 626.868 197.764 626.472C198.409 626.076 199.135 625.878 199.942 625.878C200.866 625.878 201.694 626.135 202.428 626.648C203.176 627.161 203.689 627.836 203.968 628.672L203.396 628.694C203.704 627.77 204.224 627.073 204.958 626.604C205.691 626.12 206.505 625.878 207.4 625.878C208.221 625.878 208.962 626.069 209.622 626.45C210.296 626.831 210.832 627.359 211.228 628.034C211.624 628.709 211.822 629.471 211.822 630.322V638H209.754V630.982C209.754 630.322 209.636 629.765 209.402 629.31C209.167 628.855 208.844 628.503 208.434 628.254C208.038 627.99 207.568 627.858 207.026 627.858C206.498 627.858 206.021 627.99 205.596 628.254C205.185 628.503 204.855 628.863 204.606 629.332C204.371 629.787 204.254 630.337 204.254 630.982V638H202.186V630.982C202.186 630.322 202.068 629.765 201.834 629.31C201.599 628.855 201.276 628.503 200.866 628.254C200.47 627.99 200 627.858 199.458 627.858C198.93 627.858 198.453 627.99 198.028 628.254C197.617 628.503 197.287 628.863 197.038 629.332C196.803 629.787 196.686 630.337 196.686 630.982V638H194.64ZM220.36 638.264C219.216 638.264 218.182 638 217.258 637.472C216.334 636.929 215.6 636.189 215.058 635.25C214.515 634.311 214.244 633.248 214.244 632.06C214.244 630.872 214.508 629.816 215.036 628.892C215.578 627.968 216.312 627.235 217.236 626.692C218.16 626.149 219.201 625.878 220.36 625.878C221.504 625.878 222.538 626.149 223.462 626.692C224.386 627.22 225.112 627.946 225.64 628.87C226.182 629.794 226.454 630.857 226.454 632.06C226.454 633.263 226.175 634.333 225.618 635.272C225.06 636.196 224.32 636.929 223.396 637.472C222.486 638 221.474 638.264 220.36 638.264ZM220.36 636.284C221.093 636.284 221.753 636.101 222.34 635.734C222.941 635.367 223.41 634.861 223.748 634.216C224.1 633.571 224.276 632.852 224.276 632.06C224.276 631.253 224.1 630.542 223.748 629.926C223.41 629.295 222.941 628.797 222.34 628.43C221.753 628.049 221.093 627.858 220.36 627.858C219.612 627.858 218.937 628.049 218.336 628.43C217.749 628.797 217.28 629.295 216.928 629.926C216.576 630.542 216.4 631.253 216.4 632.06C216.4 632.852 216.576 633.571 216.928 634.216C217.28 634.861 217.749 635.367 218.336 635.734C218.937 636.101 219.612 636.284 220.36 636.284Z" fill="white"/>
<path d="M454.214 593L460.088 576.61H462.64L468.514 593H466.204L464.862 589.15H457.866L456.524 593H454.214ZM458.548 587.17H464.18L461.056 578.172H461.672L458.548 587.17ZM476.475 593.264C475.522 593.264 474.649 593.051 473.857 592.626C473.08 592.201 472.478 591.599 472.053 590.822L472.339 590.47V593H470.337V576.346H472.383V583.694L472.075 583.188C472.515 582.484 473.116 581.927 473.879 581.516C474.642 581.091 475.514 580.878 476.497 580.878C477.612 580.878 478.609 581.149 479.489 581.692C480.384 582.235 481.088 582.975 481.601 583.914C482.114 584.838 482.371 585.894 482.371 587.082C482.371 588.241 482.114 589.289 481.601 590.228C481.088 591.167 480.384 591.907 479.489 592.45C478.609 592.993 477.604 593.264 476.475 593.264ZM476.321 591.284C477.069 591.284 477.736 591.101 478.323 590.734C478.91 590.367 479.364 589.869 479.687 589.238C480.024 588.593 480.193 587.874 480.193 587.082C480.193 586.261 480.024 585.542 479.687 584.926C479.364 584.295 478.91 583.797 478.323 583.43C477.736 583.049 477.069 582.858 476.321 582.858C475.573 582.858 474.898 583.041 474.297 583.408C473.71 583.775 473.241 584.281 472.889 584.926C472.552 585.557 472.383 586.275 472.383 587.082C472.383 587.874 472.552 588.593 472.889 589.238C473.241 589.869 473.71 590.367 474.297 590.734C474.898 591.101 475.573 591.284 476.321 591.284ZM485.054 593V581.142H487.1V593H485.054ZM485.054 579.25V576.61H487.1V579.25H485.054ZM493.75 593.264C492.973 593.264 492.284 593.125 491.682 592.846C491.096 592.553 490.634 592.157 490.296 591.658C489.959 591.145 489.79 590.558 489.79 589.898C489.79 589.267 489.922 588.703 490.186 588.204C490.465 587.691 490.89 587.258 491.462 586.906C492.049 586.554 492.782 586.305 493.662 586.158L498.062 585.432V587.148L494.124 587.808C493.362 587.94 492.804 588.182 492.452 588.534C492.115 588.886 491.946 589.319 491.946 589.832C491.946 590.316 492.137 590.719 492.518 591.042C492.914 591.365 493.406 591.526 493.992 591.526C494.74 591.526 495.386 591.372 495.928 591.064C496.486 590.741 496.918 590.309 497.226 589.766C497.549 589.223 497.71 588.622 497.71 587.962V584.948C497.71 584.303 497.468 583.782 496.984 583.386C496.515 582.975 495.892 582.77 495.114 582.77C494.44 582.77 493.838 582.946 493.31 583.298C492.797 583.635 492.416 584.09 492.166 584.662L490.384 583.738C490.604 583.195 490.956 582.711 491.44 582.286C491.924 581.846 492.489 581.501 493.134 581.252C493.78 581.003 494.454 580.878 495.158 580.878C496.068 580.878 496.867 581.054 497.556 581.406C498.246 581.743 498.781 582.22 499.162 582.836C499.558 583.437 499.756 584.141 499.756 584.948V593H497.754V590.756L498.128 590.888C497.879 591.357 497.542 591.768 497.116 592.12C496.691 592.472 496.192 592.751 495.62 592.956C495.048 593.161 494.425 593.264 493.75 593.264Z" fill="white"/>
<path d="M137.567 615C142.721 615 146.897 619.178 146.897 624.329C146.897 628.193 139.965 637.64 137.567 641.962C135.269 637.814 128.238 627.966 128.238 624.329C128.238 619.178 132.416 615 137.567 615ZM141.737 623.978C141.737 621.682 139.865 619.809 137.567 619.809C135.272 619.809 133.399 621.682 133.399 623.978C133.399 626.273 135.272 628.146 137.567 628.146C139.865 628.146 141.737 626.273 141.737 623.978Z" fill="white"/>
<path d="M408.329 570C413.482 570 417.658 574.178 417.658 579.329C417.658 583.193 410.727 592.64 408.329 596.962C406.031 592.814 399 582.966 399 579.329C399 574.178 403.178 570 408.329 570ZM412.499 578.978C412.499 576.682 410.626 574.809 408.329 574.809C406.034 574.809 404.161 576.682 404.161 578.978C404.161 581.273 406.034 583.146 408.329 583.146C410.626 583.146 412.499 581.273 412.499 578.978Z" fill="white"/>
</svg>
