<svg width="40" height="40" viewBox="0 0 40 40" fill="none" xmlns="http://www.w3.org/2000/svg">
<path d="M20 40C31.0457 40 40 31.0457 40 20C40 8.9543 31.0457 0 20 0C8.9543 0 0 8.9543 0 20C0 31.0457 8.9543 40 20 40Z" fill="url(#paint0_linear_935_402)"/>
<path d="M19.9987 36.6667C10.8087 36.6667 3.33203 29.19 3.33203 20C3.33203 10.8101 10.8087 3.33337 19.9987 3.33337C29.189 3.33337 36.6654 10.8101 36.6654 20C36.6654 29.19 29.189 36.6667 19.9987 36.6667Z" fill="url(#paint1_linear_935_402)"/>
<path opacity="0.3" d="M28.5662 15.3467C27.7743 15.3467 27.1324 15.9886 27.1324 16.7805C27.1324 17.1684 27.2879 17.5189 27.5381 17.7771L24.5946 20.6307L21.541 15.7879C22.0252 15.4827 22.3494 14.9468 22.3494 14.3319C22.3494 13.3796 21.5774 12.6075 20.625 12.6075C19.6727 12.6075 18.9006 13.3796 18.9006 14.3319C18.9006 14.9456 19.2235 15.4809 19.7064 15.7866L16.654 20.6307L13.7117 17.7773C13.9621 17.5192 14.1177 17.1685 14.1177 16.7805C14.1177 15.9886 13.4757 15.3467 12.6838 15.3467C11.892 15.3467 11.25 15.9886 11.25 16.7805C11.25 17.5723 11.892 18.2142 12.6838 18.2142C12.7709 18.2142 12.8553 18.2035 12.9382 18.1886L14.2977 24.7931H26.9522L28.3118 18.1886C28.3947 18.2036 28.479 18.2142 28.5662 18.2142C29.3581 18.2142 30 17.5723 30 16.7805C30 15.9886 29.3581 15.3467 28.5662 15.3467Z" fill="black"/>
<path opacity="0.3" d="M14.4594 25.5743L13.7148 28.6425H27.5358L26.7913 25.5743H14.4594Z" fill="black"/>
<path d="M27.9412 14.7217C27.1493 14.7217 26.5074 15.3636 26.5074 16.1555C26.5074 16.5434 26.6629 16.8939 26.9131 17.1521L23.9696 20.0057L20.916 15.1629C21.4002 14.8577 21.7244 14.3218 21.7244 13.7069C21.7244 12.7546 20.9524 11.9825 20 11.9825C19.0477 11.9825 18.2756 12.7546 18.2756 13.7069C18.2756 14.3206 18.5985 14.8559 19.0814 15.1616L16.029 20.0057L13.0867 17.1523C13.3371 16.8942 13.4927 16.5435 13.4927 16.1555C13.4927 15.3636 12.8507 14.7217 12.0588 14.7217C11.267 14.7217 10.625 15.3636 10.625 16.1555C10.625 16.9473 11.267 17.5892 12.0588 17.5892C12.1459 17.5892 12.2303 17.5785 12.3132 17.5636L13.6727 24.1681H26.3272L27.6868 17.5636C27.7697 17.5786 27.854 17.5892 27.9412 17.5892C28.7331 17.5892 29.375 16.9473 29.375 16.1555C29.375 15.3636 28.7331 14.7217 27.9412 14.7217Z" fill="white"/>
<path d="M13.8344 24.9493L13.0898 28.0175H26.9108L26.1663 24.9493H13.8344Z" fill="white"/>
<defs>
<linearGradient id="paint0_linear_935_402" x1="-2.10938e-07" y1="20" x2="40" y2="20" gradientUnits="userSpaceOnUse">
<stop stop-color="#FFCA05"/>
<stop offset="1" stop-color="#FAAC18"/>
</linearGradient>
<linearGradient id="paint1_linear_935_402" x1="3.33203" y1="20" x2="36.6654" y2="20" gradientUnits="userSpaceOnUse">
<stop stop-color="#FAAC18"/>
<stop offset="1" stop-color="#FFCA05"/>
</linearGradient>
</defs>
</svg>
